<svg width="172" height="52" viewBox="0 0 172 52" fill="none" xmlns="http://www.w3.org/2000/svg">
<path d="M45.667 31C45.381 31 45.117 30.9303 44.875 30.791C44.633 30.6443 44.4423 30.4537 44.303 30.219C44.1637 29.977 44.094 29.7093 44.094 29.416V28.745H45.678V29.339C45.678 29.361 45.6817 29.3793 45.689 29.394C45.7037 29.4013 45.7183 29.405 45.733 29.405H50.342C50.3567 29.405 50.3713 29.4013 50.386 29.394C50.4007 29.3793 50.408 29.361 50.408 29.339V27.898C50.408 27.8833 50.4007 27.8723 50.386 27.865C50.3713 27.8503 50.3567 27.843 50.342 27.843H45.667C45.381 27.843 45.117 27.7733 44.875 27.634C44.633 27.4873 44.4423 27.293 44.303 27.051C44.1637 26.809 44.094 26.545 44.094 26.259V24.664C44.094 24.3707 44.1637 24.1067 44.303 23.872C44.4423 23.63 44.633 23.4393 44.875 23.3C45.117 23.1533 45.381 23.08 45.667 23.08H50.43C50.716 23.08 50.9763 23.1533 51.211 23.3C51.453 23.4393 51.6473 23.63 51.794 23.872C51.9407 24.1067 52.014 24.3707 52.014 24.664V25.335H50.408V24.741C50.408 24.719 50.4007 24.7043 50.386 24.697C50.3713 24.6823 50.3567 24.675 50.342 24.675H45.733C45.7183 24.675 45.7037 24.6823 45.689 24.697C45.6817 24.7043 45.678 24.719 45.678 24.741V26.182C45.678 26.1967 45.6817 26.2113 45.689 26.226C45.7037 26.2333 45.7183 26.237 45.733 26.237H50.43C50.716 26.237 50.9763 26.3103 51.211 26.457C51.453 26.5963 51.6473 26.787 51.794 27.029C51.9407 27.271 52.014 27.535 52.014 27.821V29.416C52.014 29.7093 51.9407 29.977 51.794 30.219C51.6473 30.4537 51.453 30.6443 51.211 30.791C50.9763 30.9303 50.716 31 50.43 31H45.667ZM55.9866 31V24.675H52.8186V23.08H60.7386V24.675H57.5816V31H55.9866ZM61.5833 31V24.664C61.5833 24.3707 61.653 24.1067 61.7923 23.872C61.939 23.63 62.1296 23.4393 62.3643 23.3C62.6063 23.1533 62.874 23.08 63.1673 23.08H67.9083C68.2016 23.08 68.4656 23.1533 68.7003 23.3C68.9423 23.4393 69.1366 23.63 69.2833 23.872C69.43 24.1067 69.5033 24.3707 69.5033 24.664V31H67.8973V28.393H63.1673V31H61.5833ZM63.1673 26.809H67.8973V24.741C67.8973 24.719 67.89 24.7043 67.8753 24.697C67.868 24.6823 67.8533 24.675 67.8313 24.675H63.2333C63.2113 24.675 63.193 24.6823 63.1783 24.697C63.171 24.7043 63.1673 24.719 63.1673 24.741V26.809ZM76.9826 31L74.6396 28.206H76.7186L78.6546 30.505V31H76.9826ZM70.7566 31V23.091H77.0816C77.375 23.091 77.639 23.1643 77.8736 23.311C78.1156 23.4503 78.31 23.641 78.4566 23.883C78.6033 24.125 78.6766 24.389 78.6766 24.675V26.765C78.6766 27.051 78.6033 27.315 78.4566 27.557C78.31 27.7917 78.1156 27.9823 77.8736 28.129C77.639 28.2683 77.375 28.338 77.0816 28.338L72.3406 28.349V31H70.7566ZM72.4066 26.743H77.0046C77.0266 26.743 77.0413 26.7393 77.0486 26.732C77.0633 26.7173 77.0706 26.7027 77.0706 26.688V24.741C77.0706 24.719 77.0633 24.7043 77.0486 24.697C77.0413 24.6823 77.0266 24.675 77.0046 24.675H72.4066C72.3846 24.675 72.3663 24.6823 72.3516 24.697C72.3443 24.7043 72.3406 24.719 72.3406 24.741V26.688C72.3406 26.7027 72.3443 26.7173 72.3516 26.732C72.3663 26.7393 72.3846 26.743 72.4066 26.743ZM82.6058 31V24.675H79.4378V23.08H87.3578V24.675H84.2008V31H82.6058ZM93.2342 31C92.9408 31 92.6732 30.9303 92.4312 30.791C92.1965 30.6443 92.0058 30.4537 91.8592 30.219C91.7198 29.977 91.6502 29.7093 91.6502 29.416V24.664C91.6502 24.3707 91.7198 24.1067 91.8592 23.872C92.0058 23.63 92.1965 23.4393 92.4312 23.3C92.6732 23.1533 92.9408 23.08 93.2342 23.08H97.9752C98.2685 23.08 98.5325 23.1533 98.7672 23.3C99.0092 23.4393 99.2035 23.63 99.3502 23.872C99.4968 24.1067 99.5702 24.3707 99.5702 24.664V25.346H97.9642V24.741C97.9642 24.719 97.9568 24.7043 97.9422 24.697C97.9348 24.6823 97.9202 24.675 97.8982 24.675H93.3002C93.2782 24.675 93.2598 24.6823 93.2452 24.697C93.2378 24.7043 93.2342 24.719 93.2342 24.741V29.339C93.2342 29.361 93.2378 29.3793 93.2452 29.394C93.2598 29.4013 93.2782 29.405 93.3002 29.405H97.8982C97.9202 29.405 97.9348 29.4013 97.9422 29.394C97.9568 29.3793 97.9642 29.361 97.9642 29.339V28.041H96.2152V26.446H99.5702V29.416C99.5702 29.7093 99.4968 29.977 99.3502 30.219C99.2035 30.4537 99.0092 30.6443 98.7672 30.791C98.5325 30.9303 98.2685 31 97.9752 31H93.2342ZM100.803 31V24.664C100.803 24.3707 100.873 24.1067 101.012 23.872C101.159 23.63 101.349 23.4393 101.584 23.3C101.826 23.1533 102.094 23.08 102.387 23.08H107.128C107.421 23.08 107.685 23.1533 107.92 23.3C108.162 23.4393 108.356 23.63 108.503 23.872C108.65 24.1067 108.723 24.3707 108.723 24.664V31H107.117V28.393H102.387V31H100.803ZM102.387 26.809H107.117V24.741C107.117 24.719 107.11 24.7043 107.095 24.697C107.088 24.6823 107.073 24.675 107.051 24.675H102.453C102.431 24.675 102.413 24.6823 102.398 24.697C102.391 24.7043 102.387 24.719 102.387 24.741V26.809ZM109.976 31V23.08H111.659L114.431 26.391L117.192 23.08H118.886V31H117.291V25.445L114.431 28.866L111.56 25.456V31H109.976ZM120.203 31V23.08H127.507V24.675H121.809V26.237H126.396V27.843H121.809V29.405H127.507V31H120.203Z" fill="#FCFF3E"/>
<line x1="1" y1="50.5" x2="150" y2="50.5" stroke="white" stroke-width="3"/>
<line x1="170.5" y1="32" x2="170.5" y2="1" stroke="white" stroke-width="3"/>
<line x1="2.5" y1="51" x2="2.5" y2="21" stroke="white" stroke-width="3"/>
<line y1="-1.5" x2="29.5723" y2="-1.5" transform="matrix(0.736617 -0.67631 0.736618 0.67631 150.217 52)" stroke="white" stroke-width="3"/>
<line y1="-1.5" x2="29.5723" y2="-1.5" transform="matrix(0.736617 -0.67631 0.736618 0.67631 3.17822 23)" stroke="white" stroke-width="3"/>
<line x1="23" y1="2.5" x2="171" y2="2.5" stroke="white" stroke-width="3"/>
<path d="M157.155 28.7483L160.967 28.7483L148.829 40.7484L144.911 40.7484L157.155 28.7483Z" fill="white"/>
<path d="M24.2762 12.7483L28.0883 12.7483L15.9505 24.7484L12.0322 24.7484L24.2762 12.7483Z" fill="white"/>
</svg>
