<svg width="41" height="40" viewBox="0 0 41 40" fill="none" xmlns="http://www.w3.org/2000/svg">
<path d="M30.1951 37.225H10.3701V39.7031H30.1951V37.225Z" fill="#E7E7E7"/>
<path d="M32.6734 34.7472H30.1953V37.2253H32.6734V34.7472Z" fill="#E7E7E7"/>
<path d="M30.1951 34.7472H10.3701V37.2253H30.1951V34.7472Z" fill="#231E2B"/>
<path d="M10.3712 34.7472H7.89307V37.2253H10.3712V34.7472Z" fill="#E7E7E7"/>
<path d="M30.1954 32.2689H27.7173V34.747H30.1954V32.2689Z" fill="#E7E7E7"/>
<path d="M27.7169 32.2689H25.2388V34.747H27.7169V32.2689Z" fill="#918D8D"/>
<path d="M25.2398 32.2689H22.7617V34.747H25.2398V32.2689Z" fill="#E7E7E7"/>
<path d="M22.7613 32.2689H20.2832V34.747H22.7613V32.2689Z" fill="#918D8D"/>
<path d="M20.2829 32.2689H15.3267V34.747H20.2829V32.2689Z" fill="#E7E7E7"/>
<path d="M15.3268 32.2689H12.8486V34.747H15.3268V32.2689Z" fill="#918D8D"/>
<path d="M12.8482 32.2689H10.3701V34.747H12.8482V32.2689Z" fill="#E7E7E7"/>
<path d="M10.3712 24.8346H7.89307V34.7471H10.3712V24.8346Z" fill="#231E2B"/>
<path d="M32.6734 24.8346H30.1953V34.7471H32.6734V24.8346Z" fill="#231E2B"/>
<path d="M30.1951 29.7906H10.3701V32.2688H30.1951V29.7906Z" fill="#36313B"/>
<path d="M7.8917 24.8346H5.41357V34.7471H7.8917V24.8346Z" fill="#E7E7E7"/>
<path d="M35.152 24.8346H32.6738V34.7471H35.152V24.8346Z" fill="#E7E7E7"/>
<path d="M25.2398 22.3563H22.7617V27.3126H25.2398V22.3563Z" fill="#231E2B"/>
<path d="M37.63 22.3563H35.1519V24.8344H37.63V22.3563Z" fill="#E7E7E7"/>
<path d="M35.152 22.3563H32.6738V24.8344H35.152V22.3563Z" fill="#231E2B"/>
<path d="M32.6734 22.3563H30.1953V24.8344H32.6734V22.3563Z" fill="#B6B7B8"/>
<path d="M17.8048 22.3563H15.3267V27.3126H17.8048V22.3563Z" fill="#231E2B"/>
<path d="M10.3712 22.3563H7.89307V24.8344H10.3712V22.3563Z" fill="#B6B7B8"/>
<path d="M7.8917 22.3563H5.41357V24.8344H7.8917V22.3563Z" fill="#231E2B"/>
<path d="M5.41465 22.3563H2.93652V24.8344H5.41465V22.3563Z" fill="#E7E7E7"/>
<path d="M35.152 19.8785H32.6738V22.3567H35.152V19.8785Z" fill="#B6B7B8"/>
<path d="M7.8917 19.8785H5.41357V22.3567H7.8917V19.8785Z" fill="#B6B7B8"/>
<path d="M5.41465 9.96582H2.93652V22.3564H5.41465V9.96582Z" fill="#231E2B"/>
<path d="M37.63 9.96582H35.1519V22.3564H37.63V9.96582Z" fill="#231E2B"/>
<path d="M32.6734 17.4001H30.1953V19.8783H32.6734V17.4001Z" fill="#B6B7B8"/>
<path d="M25.2398 17.4001H22.7617V19.8783H25.2398V17.4001Z" fill="#B6B7B8"/>
<path d="M17.8048 17.4001H15.3267V19.8783H17.8048V17.4001Z" fill="#B6B7B8"/>
<path d="M10.3712 19.8785H15.3274V17.4003H17.8056V12.4441H7.89307V17.4003H10.3712V19.8785Z" fill="#231E2B"/>
<path d="M10.3712 17.4001H7.89307V19.8783H10.3712V17.4001Z" fill="#B6B7B8"/>
<path d="M2.93613 9.96582H0.458008V22.3564H2.93613V9.96582Z" fill="#E7E7E7"/>
<path d="M32.6742 17.4003V12.4441H22.7617V17.4003H25.2398V19.8785H30.1961V17.4003H32.6742Z" fill="#231E2B"/>
<path d="M40.1085 9.96582H37.6304V22.3564H40.1085V9.96582Z" fill="#E7E7E7"/>
<path d="M37.63 7.48755H35.1519V9.96567H37.63V7.48755Z" fill="#E7E7E7"/>
<path d="M35.152 7.48755H32.6738V9.96567H35.152V7.48755Z" fill="#231E2B"/>
<path d="M32.673 7.48789H30.1948V5.00977H10.3698V7.48789H7.8917V9.96602H5.41357V19.8785H7.8917V12.4441H17.8042V19.8785H7.8917V22.3566H10.3698V29.791H30.1948V22.3566H32.673V19.8785H22.7605V12.4441H32.673V19.8785H35.1511V9.96602H32.673V7.48789ZM15.3261 27.3129V22.3566H17.8042V27.3129H15.3261ZM25.2386 22.3566V27.3129H22.7605V22.3566H25.2386Z" fill="#E7E7E7"/>
<path d="M7.8917 7.48755H5.41357V9.96567H7.8917V7.48755Z" fill="#231E2B"/>
<path d="M5.41465 7.48755H2.93652V9.96567H5.41465V7.48755Z" fill="#E7E7E7"/>
<path d="M35.152 5.00977H32.6738V7.48789H35.152V5.00977Z" fill="#E7E7E7"/>
<path d="M32.6734 5.00977H30.1953V7.48789H32.6734V5.00977Z" fill="#231E2B"/>
<path d="M10.3712 5.00977H7.89307V7.48789H10.3712V5.00977Z" fill="#231E2B"/>
<path d="M7.8917 5.00977H5.41357V7.48789H7.8917V5.00977Z" fill="#E7E7E7"/>
<path d="M32.6734 2.53149H30.1953V5.00962H32.6734V2.53149Z" fill="#E7E7E7"/>
<path d="M30.1951 2.53149H10.3701V5.00962H30.1951V2.53149Z" fill="#231E2B"/>
<path d="M10.3712 2.53149H7.89307V5.00962H10.3712V2.53149Z" fill="#E7E7E7"/>
<path d="M30.1951 0.0532227H10.3701V2.53135H30.1951V0.0532227Z" fill="#E7E7E7"/>
</svg>
