<svg width="37" height="34" viewBox="0 0 37 34" fill="none" xmlns="http://www.w3.org/2000/svg">
<g clip-path="url(#clip0_1_24807)">
<path d="M0.276015 18.7775C0.360914 18.6544 5.87699 20.4561 6.00632 20.5426C6.13565 20.6292 6.59982 21.4454 6.51254 21.5971C6.42526 21.7488 2.34375 21.2914 1.55823 20.8714C0.750498 20.4418 -0.0286707 19.2206 0.276015 18.7775Z" fill="#C27614"/>
<path d="M0.27569 18.7774C0.228083 18.636 5.87666 20.4559 6.00599 20.5425C6.13533 20.629 6.27101 20.8212 6.18373 20.9728C6.09645 21.1245 2.24821 20.4218 1.47856 19.9684C0.789846 19.5658 0.428032 19.2268 0.27569 18.7774Z" fill="#F2920C"/>
<path d="M1.08228 20.9243C1.15131 20.791 6.84432 21.9113 6.98397 21.982C7.12361 22.0527 7.6822 22.8062 7.61397 22.9666C7.54573 23.127 3.43883 23.1714 2.60412 22.8475C1.75274 22.518 0.833927 21.4 1.08228 20.9243Z" fill="#C27614"/>
<path d="M1.08208 20.9246C1.01702 20.7896 6.84413 21.9116 6.98377 21.9822C7.12342 22.0529 7.28052 22.2268 7.21229 22.3872C7.14405 22.5476 3.23868 22.3173 2.41667 21.9608C1.6859 21.6448 1.28521 21.3494 1.08208 20.9246Z" fill="#F2920C"/>
<path d="M2.00254 22.8101C2.05888 22.6712 7.83123 23.2588 7.97644 23.3159C8.12164 23.3731 8.74846 24.0718 8.69054 24.2378C8.63262 24.4037 4.55349 24.8286 3.6918 24.584C2.819 24.3347 1.80021 23.3064 2.00254 22.8101Z" fill="#C27614"/>
<path d="M2.00226 22.8105C1.92291 22.6819 7.83095 23.2591 7.97615 23.3163C8.12135 23.3735 8.29353 23.5323 8.24116 23.6982C8.1888 23.8642 4.27787 23.9976 3.4265 23.7189C2.66876 23.4711 2.24585 23.2147 2.00226 22.8105Z" fill="#F2920C"/>
<path d="M9.13592 22.2144C8.60034 22.1937 7.82673 22.135 7.07295 22.0437H7.05232C6.48191 21.9815 5.91514 21.8895 5.35433 21.7681L5.32577 21.7618C5.16231 21.7266 5.00282 21.675 4.8497 21.6077C4.79495 21.5807 4.74179 21.5498 4.68704 21.5156L4.66959 21.5053L4.6561 21.4966C4.31802 21.2684 4.0264 20.9779 3.79679 20.6406C3.55876 20.2968 3.42069 19.945 3.46037 19.7005C3.46037 19.7005 3.46037 19.6957 3.46037 19.6933C3.46803 19.6445 3.48558 19.5978 3.51194 19.556C3.51194 19.5496 3.53495 19.5472 3.56748 19.5496H3.58415C4.07767 19.602 6.95076 20.423 8.4242 20.8693C8.43151 21.1045 8.4984 21.334 8.61859 21.5363C8.74097 21.7594 8.89312 21.9648 9.07086 22.1469L9.07721 22.1524C9.09546 22.1747 9.11609 22.1945 9.13592 22.2144Z" fill="#C27614"/>
<path d="M8.62026 21.5373C8.00692 21.4643 7.16111 21.3301 6.40495 21.1752C5.99473 21.0919 5.6115 21.0013 5.30443 20.9124C5.11299 20.8619 4.92696 20.7928 4.74901 20.706C4.15551 20.3812 3.79687 20.093 3.60248 19.7412C3.60034 19.7382 3.59848 19.735 3.59692 19.7317C3.56616 19.6739 3.53964 19.6139 3.51758 19.5522C3.51758 19.5435 3.53345 19.5419 3.57312 19.5459H3.58978C4.08172 19.6142 6.9564 20.4288 8.42983 20.8687C8.43568 21.1041 8.5012 21.3342 8.62026 21.5373Z" fill="#F2920C"/>
<path d="M11.6453 23.3404C11.608 23.4491 9.82036 23.6334 8.35486 23.6715H8.24774C7.84663 23.6844 7.44512 23.6762 7.04487 23.6469L6.96552 23.6389C6.85473 23.6289 6.74506 23.609 6.63783 23.5794C6.3191 23.4704 6.02321 23.3035 5.76503 23.0871H5.76344C5.75649 23.0822 5.74986 23.0769 5.74361 23.0712L5.73567 23.0632C5.48951 22.8683 5.27834 22.6328 5.11123 22.3669C4.97713 22.1406 4.92239 21.9278 4.98983 21.7714C4.98983 21.7642 5.01284 21.7595 5.04775 21.7563C5.14164 21.7519 5.2357 21.7533 5.32943 21.7602C5.58095 21.7729 5.95546 21.8047 6.39265 21.8476H6.4109H6.41566C7.20911 21.927 8.21521 22.0405 9.07452 22.1453L9.08086 22.1509C9.09911 22.1708 9.11895 22.1906 9.13879 22.2105C9.33076 22.3994 9.54009 22.5698 9.76403 22.7194C9.8671 22.7895 9.97502 22.8521 10.087 22.9068C10.5128 23.1075 10.9763 23.2157 11.4469 23.2244H11.4517H11.5183H11.5223H11.6302C11.6483 23.2602 11.6537 23.3011 11.6453 23.3404Z" fill="#C27614"/>
<path d="M10.084 22.9109C9.35165 22.9339 8.3892 22.9283 7.60923 22.8791C7.06969 22.845 6.61742 22.7902 6.38891 22.71C6.14306 22.6277 5.90425 22.5258 5.6748 22.4051C5.3479 22.2272 5.12891 22.0279 4.98212 21.7698C4.97736 21.7611 4.99799 21.7563 5.04004 21.7548C5.10114 21.7548 5.20825 21.7548 5.35028 21.7651C5.61767 21.7818 6.00964 21.8175 6.46111 21.8627H6.47698C7.26329 21.9422 8.23368 22.0517 9.06839 22.151C9.08664 22.1708 9.10648 22.1907 9.12631 22.2105C9.31828 22.3995 9.52762 22.5699 9.75155 22.7195C9.85757 22.7913 9.96869 22.8553 10.084 22.9109Z" fill="#F2920C"/>
<path d="M3.16051 24.6201C3.19781 24.4748 8.99635 24.2795 9.1479 24.316C9.29945 24.3525 10.0143 24.9615 9.9842 25.133C9.95404 25.3046 5.96378 26.2764 5.0767 26.1494C4.17693 26.0208 3.02722 25.1394 3.16051 24.6201Z" fill="#C27614"/>
<path d="M3.15979 24.6206C3.06616 24.5039 8.99562 24.28 9.14717 24.3165C9.29872 24.353 9.49153 24.488 9.46455 24.6595C9.43757 24.831 5.57664 25.4901 4.6967 25.3289C3.91198 25.1828 3.45495 24.989 3.15979 24.6206Z" fill="#F2920C"/>
<path d="M4.64325 26.4148C4.66071 26.2663 10.3783 25.2809 10.5338 25.2968C10.6893 25.3127 11.4765 25.8177 11.4765 25.9924C11.4765 26.1671 7.64885 27.6733 6.75304 27.6686C5.84295 27.6646 4.58216 26.9476 4.64325 26.4148Z" fill="#C27614"/>
<path d="M4.64261 26.4148C4.53391 26.3124 10.3777 25.2809 10.5332 25.2968C10.6887 25.3127 10.8974 25.4199 10.891 25.5938C10.8847 25.7677 7.15388 26.9436 6.25887 26.9071C5.46542 26.8714 4.98618 26.7396 4.64261 26.4148Z" fill="#F2920C"/>
<path d="M6.63623 27.9007C6.63623 27.7514 12.1642 25.995 12.3197 25.995C12.4752 25.995 13.3282 26.3825 13.3449 26.5556C13.3615 26.7287 9.78147 28.7423 8.8936 28.8583C7.99224 28.9766 6.64972 28.4374 6.63623 27.9007Z" fill="#C27614"/>
<path d="M6.63623 27.9007C6.51404 27.8141 12.1642 25.995 12.3197 25.995C12.4752 25.995 12.6974 26.0673 12.7164 26.2403C12.7355 26.4134 9.19749 28.0896 8.30565 28.1722C7.51537 28.2413 7.02264 28.1754 6.63623 27.9007Z" fill="#F2920C"/>
<path d="M14.1099 27.7163C13.6259 28.1022 13.0547 28.5334 12.5349 28.8931C12.22 29.1168 11.8932 29.3233 11.5558 29.5116L11.5201 29.5299C11.4243 29.5821 11.3239 29.6254 11.2202 29.6593C10.3474 29.9205 8.93664 29.6005 8.83984 29.0725C8.83984 29.0669 8.8446 29.0582 8.8573 29.0463C8.86144 29.0419 8.86595 29.038 8.87079 29.0344L8.91046 29.0058L8.9295 28.9931C9.02234 28.928 9.18579 28.8343 9.39764 28.712C9.82769 28.4738 10.4593 28.1363 11.1218 27.7941C11.7566 27.4678 12.412 27.1343 12.9539 26.8643C13.2975 26.6928 13.5942 26.5467 13.8061 26.4451L13.8156 26.4991C13.8152 26.5017 13.8152 26.5044 13.8156 26.507C13.8346 26.6129 13.8545 26.7187 13.8751 26.8246C13.8902 26.8969 13.9052 26.9683 13.9219 27.0382C13.9481 27.1589 13.9774 27.2764 14.0076 27.3892C14.0235 27.4458 14.0393 27.5006 14.0552 27.5535C14.0552 27.5535 14.0552 27.5575 14.0552 27.5591C14.075 27.6107 14.0949 27.6647 14.1099 27.7163Z" fill="#C27614"/>
<path d="M14.6388 26.3801H14.6338C14.6342 26.3784 14.6342 26.3767 14.6338 26.375L14.6388 26.3801Z" fill="#C27614"/>
<path d="M13.9238 27.0356C13.393 27.4262 12.6202 27.9463 11.9251 28.3656C11.7196 28.4894 11.5212 28.6038 11.338 28.7046C11.0809 28.8565 10.8083 28.98 10.5247 29.0731C9.75502 29.27 9.25515 29.2827 8.83541 29.0731C8.82907 29.0731 8.83541 29.0611 8.85287 29.0468C8.85701 29.0425 8.86152 29.0385 8.86636 29.0349L8.90603 29.0064L8.92507 28.9936C9.02664 28.9277 9.20437 28.8245 9.43685 28.6959C9.86849 28.4577 10.485 28.1321 11.1293 27.7978C11.7418 27.4802 12.379 27.1555 12.9098 26.8895C13.27 26.7084 13.5803 26.5544 13.8 26.448L13.8096 26.502C13.8092 26.5046 13.8092 26.5073 13.8096 26.5099C13.8286 26.6158 13.8484 26.7217 13.8691 26.8275C13.8921 26.8942 13.9072 26.9657 13.9238 27.0356Z" fill="#F2920C"/>
<path d="M14.916 28.839C14.5357 29.2489 14.1305 29.635 13.7029 29.9951C13.6039 30.0765 13.4977 30.1485 13.3855 30.2103C12.5738 30.624 11.1281 30.5636 10.9385 30.0618C10.9385 30.0547 10.9448 30.0396 10.9639 30.0173L10.975 30.0054C11.146 29.8366 11.3264 29.6776 11.5153 29.529C11.7383 29.3456 12.012 29.1272 12.3088 28.8938C12.8547 28.465 13.4855 27.9807 14.0544 27.5519C14.0544 27.5519 14.0544 27.5559 14.0544 27.5574C14.0702 27.6122 14.0877 27.6662 14.1051 27.7162C14.1479 27.8419 14.1985 27.9647 14.2567 28.0839C14.2578 28.087 14.2594 28.09 14.2615 28.0926C14.2686 28.1093 14.2773 28.1244 14.2853 28.1403C14.3067 28.1792 14.3281 28.2197 14.3503 28.2514C14.363 28.2721 14.3765 28.2919 14.3916 28.3118C14.5194 28.4888 14.6711 28.6472 14.8423 28.7826C14.8692 28.8025 14.8922 28.8207 14.916 28.839Z" fill="#C27614"/>
<path d="M14.3961 28.3123C13.7899 28.88 13.1623 29.42 12.7727 29.6622C12.7346 29.686 12.6989 29.7066 12.6664 29.7241C12.6338 29.7416 12.6219 29.7471 12.6021 29.7566C11.88 30.0885 11.3937 30.191 10.9398 30.06C10.9311 30.06 10.9398 30.0417 10.9652 30.0155L10.9763 30.0036C11.0596 29.9178 11.2675 29.7416 11.5524 29.5105C11.7721 29.331 12.0387 29.119 12.3283 28.892C12.8711 28.4656 13.4971 27.9836 14.0589 27.5548C14.0747 27.6096 14.0922 27.6636 14.1096 27.7136C14.1524 27.8392 14.203 27.962 14.2612 28.0812C14.2623 28.0844 14.2639 28.0873 14.266 28.09C14.2731 28.1067 14.2818 28.1217 14.2898 28.1376C14.3112 28.1765 14.3326 28.217 14.3548 28.2488C14.3675 28.2726 14.381 28.2925 14.3961 28.3123Z" fill="#F2920C"/>
<path d="M13.4497 24.143H13.4426L13.4244 24.1494C12.2807 24.5074 11.1144 24.7883 9.93317 24.9902C9.75782 25.0188 9.59437 25.041 9.44838 25.0561H9.44441L9.39125 25.0609C9.23614 25.0794 9.07955 25.0821 8.9239 25.0688C8.75199 25.0451 8.58326 25.0022 8.42086 24.941C8.10723 24.8241 7.813 24.6605 7.54806 24.4558C7.50442 24.4225 7.46237 24.3876 7.4227 24.3534L7.41635 24.3479C7.24914 24.2109 7.11376 24.0391 7.01962 23.8444C6.99112 23.7791 6.97679 23.7085 6.97757 23.6372C6.97769 23.6144 6.98062 23.5918 6.9863 23.5697C6.9863 23.5634 7.00058 23.557 7.02438 23.5491H7.03628L7.08389 23.5387C7.25448 23.5046 7.63931 23.4657 8.13204 23.4268H8.15426C9.09688 23.3529 10.4299 23.2767 11.4542 23.2275H11.459H11.5256H11.5296H11.6375C12.3016 23.2323 12.8618 23.133 13.1276 23.2902C13.2027 23.3477 13.2581 23.427 13.2863 23.5173C13.3609 23.7204 13.4169 23.9298 13.4537 24.143H13.4497Z" fill="#C27614"/>
<path d="M13.2751 23.5188C13.1672 23.6935 9.70459 24.3454 8.64533 24.27C8.60387 24.2676 8.56256 24.2631 8.52156 24.2565C7.95344 24.1612 7.55513 24.0357 7.26394 23.8341C7.18475 23.7801 7.1116 23.7178 7.04574 23.6483C7.02174 23.6243 6.99896 23.5991 6.9775 23.5728C6.97274 23.5665 6.98623 23.5593 7.01558 23.5522H7.02749L7.07509 23.5419C7.24727 23.5125 7.63051 23.476 8.13118 23.4378H8.15419C9.11823 23.364 10.4853 23.279 11.5168 23.2314H11.5208H11.6287C12.2928 23.2362 12.853 23.1369 13.1188 23.2941C13.1926 23.3513 13.2471 23.4297 13.2751 23.5188Z" fill="#F2920C"/>
<path d="M13.6476 25.4432C13.2295 25.629 12.7685 25.8219 12.3273 25.9927C11.5815 26.2825 10.8896 26.5104 10.5476 26.5366H10.5222H10.5135C10.4651 26.5366 10.4151 26.5366 10.3643 26.5366H10.3334H10.3151C9.93218 26.5054 9.55814 26.4045 9.21144 26.2388C8.85835 26.0736 8.56477 25.8585 8.43068 25.6425C8.43094 25.6401 8.43094 25.6377 8.43068 25.6353L8.42275 25.6218C8.37734 25.5489 8.35469 25.464 8.35768 25.3781C8.35768 25.3709 8.37117 25.3622 8.39498 25.3503L8.43941 25.332C8.58937 25.2733 8.93532 25.1788 9.39155 25.0644C9.55024 25.0255 9.71607 24.985 9.8946 24.9414C11.0395 24.665 12.5535 24.3308 13.4477 24.1473C13.4834 24.3339 13.5175 24.5444 13.5516 24.7635C13.5786 24.9382 13.6056 25.1216 13.631 25.3098C13.631 25.3098 13.631 25.3138 13.631 25.3154C13.6357 25.3582 13.6421 25.4003 13.6476 25.4432Z" fill="#C27614"/>
<path d="M13.5473 24.7642C12.8244 25.0445 11.8469 25.3787 11.0709 25.59C10.9836 25.6138 10.8987 25.636 10.8178 25.6567C10.5477 25.7331 10.2703 25.7807 9.99023 25.7988C9.42291 25.7988 9.01349 25.7416 8.69531 25.5955C8.6916 25.5946 8.6881 25.593 8.685 25.5908C8.66868 25.5841 8.65278 25.5764 8.63739 25.5677C8.5355 25.5164 8.44035 25.4527 8.35413 25.378C8.34778 25.3724 8.36048 25.3629 8.39142 25.3502L8.43586 25.3319C8.59455 25.2763 8.96112 25.1779 9.43957 25.0595H9.44354L9.89581 24.9492C11.032 24.6768 12.5293 24.3417 13.4235 24.1552H13.4425C13.479 24.3346 13.5132 24.5426 13.5473 24.7642Z" fill="#F2920C"/>
<path d="M13.8766 26.8215C13.0244 27.2979 12.173 27.7219 11.7977 27.7847C11.719 27.7979 11.6395 27.8061 11.5597 27.8093H11.5422C11.4629 27.8093 11.3835 27.8093 11.3042 27.8093C11.2479 27.8093 11.1915 27.8021 11.1344 27.7958H11.1193C10.791 27.7585 10.4701 27.6723 10.1672 27.5401C9.79187 27.3726 9.5213 27.1431 9.50781 26.9096C9.50781 26.9017 9.52447 26.8874 9.55542 26.8692L9.58478 26.8525L9.59509 26.8469L9.61969 26.835L9.63397 26.8271H9.65143C9.78949 26.7596 10.0228 26.6611 10.3179 26.5444C10.5004 26.4713 10.7059 26.3919 10.9265 26.3062H10.9313C11.7541 25.9933 12.7927 25.6162 13.629 25.3192C13.629 25.3192 13.629 25.3232 13.629 25.3248C13.6353 25.3669 13.6417 25.4089 13.6472 25.4518C13.6782 25.6606 13.7099 25.8742 13.744 26.087C13.7631 26.2104 13.7837 26.3327 13.8059 26.4539L13.8155 26.5079C13.8151 26.5105 13.8151 26.5132 13.8155 26.5158C13.8356 26.6164 13.8559 26.7183 13.8766 26.8215Z" fill="#C27614"/>
<path d="M14.6388 26.3801H14.6338C14.6342 26.3784 14.6342 26.3767 14.6338 26.375L14.6388 26.3801Z" fill="#C27614"/>
<path d="M13.7444 26.0768C13.5516 26.1721 13.354 26.2682 13.1572 26.3603C12.3447 26.7438 11.5481 27.0749 11.1847 27.1178L11.0879 27.1297C10.3564 27.2131 9.88663 27.1575 9.50974 26.9074C9.50181 26.9018 9.51847 26.8875 9.55735 26.8669L9.58671 26.8502L9.60575 26.8415L9.64225 26.824H9.65018L9.66526 26.8169C9.80887 26.751 10.0414 26.6581 10.331 26.5413C10.4595 26.4913 10.5992 26.4365 10.7475 26.3825H10.7523C11.6013 26.057 12.7296 25.6449 13.627 25.3241C13.6333 25.3662 13.6397 25.4083 13.6452 25.4511C13.6785 25.6512 13.7103 25.8648 13.7444 26.0768Z" fill="#F2920C"/>
<path d="M14.2893 28.1414C14.1545 28.2399 14.0243 28.3312 13.9037 28.4114C13.8847 28.4249 13.8656 28.4368 13.8474 28.4487C13.6641 28.5781 13.4669 28.6865 13.2594 28.7719C13.025 28.8478 12.7806 28.889 12.5342 28.8942C12.4652 28.8942 12.397 28.8942 12.3279 28.8942H12.3129C11.9792 28.888 11.649 28.8244 11.3369 28.706C11.079 28.6012 10.8965 28.4559 10.8608 28.2828C10.8608 28.2756 10.8696 28.2629 10.891 28.2431L10.9172 28.2216L10.9608 28.1891C11.0751 28.1049 11.2782 27.9731 11.5464 27.8119C12.1288 27.4594 12.9976 26.9615 13.818 26.501C13.8177 26.5036 13.8177 26.5063 13.818 26.5089C13.8371 26.6148 13.8569 26.7207 13.8775 26.8265C13.8926 26.8988 13.9077 26.9702 13.9244 27.0401C13.9505 27.1608 13.9799 27.2783 14.01 27.3911C14.0259 27.4477 14.0418 27.5025 14.0577 27.5554C14.0577 27.5554 14.0577 27.5594 14.0577 27.561C14.0735 27.6158 14.091 27.6698 14.1084 27.7198C14.1512 27.8454 14.2018 27.9682 14.26 28.0874C14.2611 28.0906 14.2627 28.0935 14.2647 28.0962C14.2727 28.1105 14.2814 28.1256 14.2893 28.1414Z" fill="#C27614"/>
<path d="M14.6388 26.3801H14.6338C14.6342 26.3784 14.6342 26.3767 14.6338 26.375L14.6388 26.3801Z" fill="#C27614"/>
<path d="M14.0085 27.3869C13.3999 27.7935 12.8389 28.1262 12.5454 28.2143C12.3413 28.2768 12.1339 28.3274 11.9241 28.366C11.4909 28.4454 11.1576 28.4168 10.8569 28.2818C10.849 28.2818 10.8569 28.2643 10.887 28.2421L10.9132 28.2207L10.9569 28.1881C11.0751 28.1087 11.2869 27.9737 11.5599 27.8101C12.1423 27.46 13.0032 26.9661 13.8157 26.5079C13.8347 26.6138 13.8545 26.7197 13.8752 26.8255C13.8903 26.8978 13.9053 26.9693 13.922 27.0391C13.949 27.1567 13.9783 27.2742 14.0085 27.3869Z" fill="#F2920C"/>
<path d="M14.6388 26.3801H14.6338C14.6342 26.3784 14.6342 26.3767 14.6338 26.375L14.6388 26.3801Z" fill="#F2920C"/>
<path d="M15.5408 29.2438C15.3971 29.3931 15.2374 29.5262 15.0647 29.6408C14.7994 29.7869 14.5113 29.8873 14.2126 29.9377H14.2015C14.0379 29.9668 13.8724 29.9841 13.7064 29.9893C13.2493 30.0036 12.8423 29.9163 12.6709 29.7202C12.6475 29.6936 12.6282 29.6636 12.6138 29.6312C12.6138 29.6249 12.6193 29.6122 12.6304 29.5931L12.6384 29.582C12.7582 29.4288 13.2414 28.9841 13.8484 28.4465C13.9809 28.329 14.1197 28.2083 14.2618 28.0829C14.2629 28.086 14.2645 28.089 14.2665 28.0916C14.2737 28.1083 14.2824 28.1234 14.2903 28.1393C14.3118 28.1782 14.3332 28.2187 14.3554 28.2504C14.3681 28.2711 14.3816 28.2909 14.3967 28.3108C14.5245 28.4878 14.6761 28.6462 14.8473 28.7816C14.8696 28.8007 14.8926 28.8189 14.9164 28.8372C14.9783 28.8856 15.0433 28.9325 15.11 28.9778L15.1171 28.9833C15.2512 29.073 15.394 29.1628 15.5408 29.2438Z" fill="#C27614"/>
<path d="M14.8466 28.7837C14.6641 28.9555 14.4644 29.1079 14.2507 29.2387C13.6318 29.5682 13.1851 29.7071 12.7725 29.6643C12.7175 29.6584 12.663 29.6494 12.6091 29.6373C12.6011 29.6373 12.6091 29.6222 12.6257 29.5992L12.6337 29.588C12.7614 29.4364 13.2684 28.9735 13.9032 28.4153L14.265 28.0977C14.2721 28.1143 14.2809 28.1294 14.2888 28.1453C14.3102 28.1842 14.3316 28.2247 14.3539 28.2565C14.3665 28.2771 14.38 28.297 14.3951 28.3168C14.5235 28.4925 14.6754 28.6496 14.8466 28.7837Z" fill="#F2920C"/>
<path d="M16.7223 29.7733C16.5743 29.9579 16.4064 30.1257 16.2217 30.2735C15.4742 30.7952 14.0341 30.9349 13.7778 30.4641C13.7778 30.4585 13.7778 30.4466 13.7889 30.4283L13.8 30.4117V30.4077C13.9234 30.2455 14.0559 30.0904 14.1968 29.9432C14.4348 29.6828 14.7522 29.3453 15.1084 28.9792L15.1156 28.9848C15.2505 29.0761 15.3933 29.1627 15.5401 29.2437C15.6678 29.3143 15.798 29.3802 15.9281 29.4422C16.2034 29.5716 16.4756 29.6828 16.7223 29.7733Z" fill="#C27614"/>
<path d="M15.9288 29.4423C15.7633 29.6245 15.5796 29.7892 15.3805 29.9338C14.7116 30.3626 14.2443 30.531 13.7769 30.4643C13.769 30.4643 13.773 30.4508 13.7881 30.4285L13.7992 30.4118V30.4079C13.8579 30.3285 14.0031 30.1609 14.2062 29.941C14.4442 29.6821 14.7616 29.3479 15.1139 28.9882C15.2488 29.0795 15.3916 29.166 15.5384 29.247C15.6685 29.3113 15.7987 29.3804 15.9288 29.4423Z" fill="#F2920C"/>
<path d="M18.3677 29.4842C18.3677 29.8153 17.7703 30.067 17.6584 30.071L17.6306 30.0631H17.6266C17.5187 30.0337 17.1664 29.9352 16.7253 29.7724C16.4793 29.6819 16.2064 29.5708 15.9318 29.4413C15.8017 29.3794 15.6716 29.3135 15.5438 29.2428C15.397 29.1634 15.2542 29.0753 15.1193 28.984L15.1122 28.9784C15.0455 28.9332 14.9805 28.8863 14.9186 28.8379C14.8948 28.8196 14.8718 28.8013 14.8496 28.7823C14.6784 28.6469 14.5267 28.4884 14.3989 28.3114C14.3838 28.2916 14.3703 28.2717 14.3576 28.2511C14.3354 28.2161 14.314 28.1788 14.2926 28.1399C14.2846 28.124 14.2759 28.109 14.2688 28.0923C14.2667 28.0896 14.2651 28.0867 14.264 28.0835C14.2058 27.9643 14.1552 27.8415 14.1125 27.7159C14.095 27.6643 14.0775 27.6103 14.0617 27.5571C14.0617 27.5571 14.0617 27.5571 14.0617 27.5515C14.0458 27.4986 14.0299 27.4438 14.0141 27.3872C13.9839 27.2744 13.9546 27.1569 13.9284 27.0362C13.9117 26.9664 13.8966 26.8949 13.8816 26.8226C13.8609 26.7194 13.8411 26.6135 13.822 26.505C13.8217 26.5024 13.8217 26.4997 13.822 26.4971L13.8125 26.4431C13.7903 26.3219 13.7697 26.1996 13.7506 26.0762C13.7165 25.8642 13.6848 25.6506 13.6538 25.441C13.6483 25.3981 13.6419 25.3561 13.6356 25.314C13.6356 25.314 13.6356 25.31 13.6356 25.3084C13.6086 25.1202 13.5816 24.9368 13.5562 24.7621C13.5221 24.5406 13.488 24.3326 13.4523 24.146C13.4155 23.9328 13.3595 23.7234 13.2849 23.5203C13.2567 23.43 13.2012 23.3507 13.1262 23.2932C12.8604 23.1344 12.3002 23.2352 11.6361 23.2305H11.5282H11.5242H11.4576H11.4528C10.9822 23.2218 10.5187 23.1135 10.0928 22.9128C9.98088 22.8581 9.87297 22.7955 9.76989 22.7255C9.54596 22.5758 9.33662 22.4054 9.14465 22.2165C9.12482 22.1966 9.10498 22.1768 9.08673 22.1569L9.08038 22.1514C8.90264 21.9693 8.75049 21.7639 8.62812 21.5408C8.50792 21.3385 8.44104 21.109 8.43372 20.8738C8.43227 20.8298 8.44328 20.7863 8.46546 20.7483C8.57495 20.6046 13.415 22.2093 13.8657 22.7088C14.0109 22.8676 14.1355 23.3781 14.2521 24.0157C14.2521 24.0157 14.2521 24.0157 14.2521 24.0221C14.2767 24.1579 14.3013 24.3 14.3251 24.4461C14.3576 24.6399 14.3894 24.8431 14.4211 25.0416L14.4282 25.0885C14.46 25.2862 14.4909 25.4855 14.5219 25.6816C14.5433 25.815 14.5647 25.9468 14.5869 26.0786C14.5865 26.0805 14.5865 26.0824 14.5869 26.0842C14.6036 26.1866 14.6211 26.2867 14.6385 26.3843C14.6389 26.3859 14.6389 26.3875 14.6385 26.3891C14.671 26.5678 14.7036 26.7369 14.7377 26.8917C14.7472 26.9378 14.7575 26.9822 14.7678 27.0251C14.7674 27.0264 14.7674 27.0278 14.7678 27.0291C14.7774 27.0735 14.7877 27.1156 14.798 27.1561C14.8289 27.2824 14.8673 27.4068 14.913 27.5285V27.5365C14.9281 27.5746 14.944 27.6095 14.9591 27.6397C14.9717 27.6643 14.9857 27.6882 15.0011 27.7111L15.0122 27.7262C15.109 27.8565 15.309 27.9875 15.5573 28.1113L15.5835 28.124C15.6629 28.1637 15.7485 28.2034 15.8366 28.24L15.8453 28.2439C15.9945 28.3083 16.1516 28.3686 16.3079 28.4266C16.4436 28.4758 16.5793 28.5226 16.7086 28.5655C17.022 28.6695 17.3029 28.7537 17.4767 28.8077C17.5375 28.8236 17.5972 28.8438 17.6552 28.868C17.7687 28.8617 18.3677 29.1523 18.3677 29.4842Z" fill="#C27614"/>
<path d="M18.6888 30.6445C18.9859 30.6445 19.2268 30.129 19.2268 29.4931C19.2268 28.8573 18.9859 28.3418 18.6888 28.3418C18.3917 28.3418 18.1509 28.8573 18.1509 29.4931C18.1509 30.129 18.3917 30.6445 18.6888 30.6445Z" fill="#C27614"/>
<path d="M18.6884 25.332C17.6141 25.332 16.7437 27.1956 16.7437 29.4935C16.7437 31.7914 17.6164 33.6558 18.6884 33.6558C19.7604 33.6558 20.6339 31.7922 20.6339 29.4935C20.6339 27.1948 19.7627 25.332 18.6884 25.332ZM18.6884 32.9047C17.8085 32.9047 17.0944 31.3778 17.0944 29.4904C17.0944 27.6029 17.8085 26.076 18.6884 26.076C19.5683 26.076 20.2824 27.6037 20.2824 29.4904C20.2824 31.377 19.5691 32.9047 18.6884 32.9047Z" fill="#C27614"/>
<path d="M20.2839 29.4932C20.2839 31.3774 19.5698 32.9075 18.6899 32.9075C18.6204 32.9075 18.5512 32.8979 18.4844 32.8789C19.2675 32.6629 19.8729 31.2313 19.8729 29.4963C19.8729 27.7614 19.2675 26.3298 18.4844 26.1138C18.5512 26.0948 18.6204 26.0852 18.6899 26.0852C19.5698 26.082 20.2839 27.6097 20.2839 29.4932Z" fill="#F2920C"/>
<path d="M18.3541 33.5939C18.1941 33.6925 18.0104 33.7457 17.8225 33.7479C16.7236 33.7479 15.8325 31.8423 15.8325 29.4912C15.8325 27.14 16.7236 25.2344 17.8225 25.2344C18.0108 25.2364 18.1949 25.2899 18.3549 25.3892C18.3549 25.3892 18.3549 25.3892 18.3501 25.3892C18.2432 25.3486 18.1297 25.3276 18.0153 25.3273C16.9418 25.3273 16.0706 27.1909 16.0706 29.4888C16.0706 31.7867 16.9434 33.6511 18.0153 33.6511C18.1308 33.6527 18.2456 33.6334 18.3541 33.5939Z" fill="#C27614"/>
<path d="M18.2769 33.5621C18.3031 33.574 18.3285 33.5851 18.3562 33.5939C18.2493 33.6345 18.1358 33.6555 18.0214 33.6558C16.9479 33.6558 16.0767 31.7922 16.0767 29.4935C16.0767 27.1948 16.9495 25.332 18.0214 25.332C18.1358 25.3324 18.2493 25.3534 18.3562 25.394C18.3309 25.4027 18.3055 25.4138 18.2769 25.4257C18.2351 25.4196 18.193 25.4167 18.1507 25.417C17.0986 25.417 16.2465 27.2433 16.2465 29.4935C16.2465 31.7438 17.0994 33.5709 18.1507 33.5709C18.193 33.5712 18.2351 33.5682 18.2769 33.5621Z" fill="#F2920C"/>
<path d="M18.2765 33.562C18.2348 33.5681 18.1926 33.5711 18.1504 33.5708C17.0983 33.5708 16.2461 31.7445 16.2461 29.4934C16.2461 27.2424 17.0991 25.4169 18.1504 25.4169C18.1926 25.4166 18.2348 25.4195 18.2765 25.4256C17.4037 25.8298 16.7436 27.498 16.7436 29.4934C16.7436 31.4888 17.4006 33.1579 18.2765 33.562Z" fill="#F2920C"/>
<path d="M18.9634 30.4828V32.853C18.7869 32.9218 18.591 32.9218 18.4146 32.853V30.4836C18.445 30.5292 18.4856 30.5673 18.5331 30.5948C18.5806 30.6224 18.6338 30.6386 18.6886 30.6424C18.7308 30.6409 18.7723 30.631 18.8106 30.6132C18.8489 30.5955 18.8833 30.5703 18.9118 30.5392C18.9307 30.522 18.948 30.5031 18.9634 30.4828Z" fill="#C27614"/>
<path d="M18.4154 26.1357V28.5059C18.3875 28.5405 18.363 28.5778 18.3423 28.6171L18.1509 28.3844V26.2818C18.2311 26.22 18.3203 26.1707 18.4154 26.1357Z" fill="#F2920C"/>
<path d="M18.4154 30.4833V32.8527C18.3202 32.8172 18.231 32.7674 18.1509 32.705V30.6111L18.3439 30.3729C18.3641 30.4119 18.388 30.4489 18.4154 30.4833Z" fill="#F2920C"/>
<path d="M20.1526 28.1435L19.2187 29.2949C19.2058 29.0751 19.1519 28.8597 19.0601 28.6596L19.9884 27.5146C20.0565 27.7205 20.1114 27.9306 20.1526 28.1435Z" fill="#C27614"/>
<path d="M18.3439 30.3745L18.1511 30.6127L17.4092 31.5274C17.3391 31.3239 17.2819 31.1163 17.2378 30.9057L18.1511 29.7789L18.1661 29.7615C18.1851 29.9754 18.2454 30.1836 18.3439 30.3745Z" fill="#C27614"/>
<path d="M19.9864 27.5142L19.0581 28.6592C19.0327 28.6042 19.0007 28.5525 18.9629 28.5052V28.3758L19.8865 27.2395C19.9206 27.3268 19.9547 27.419 19.9864 27.5142Z" fill="#F2920C"/>
<path d="M18.9634 26.1358V28.5068C18.9471 28.4848 18.929 28.4641 18.9094 28.4449C18.8519 28.3836 18.7725 28.3477 18.6886 28.3448C18.6338 28.3486 18.5806 28.3648 18.5331 28.3924C18.4856 28.4199 18.445 28.458 18.4146 28.5036V26.1358C18.591 26.067 18.7869 26.067 18.9634 26.1358Z" fill="#C27614"/>
<path d="M18.1654 29.7597L18.1503 29.7772L17.2371 30.9039C17.214 30.7983 17.1942 30.6895 17.1768 30.5776L18.0543 29.4961L18.1503 29.377V29.373C18.1503 29.412 18.1503 29.4525 18.1503 29.4929C18.1503 29.5334 18.1503 29.5723 18.1503 29.6176C18.1559 29.6668 18.1606 29.7137 18.1654 29.7597Z" fill="#F2920C"/>
<path d="M18.3425 28.6157C18.2442 28.8079 18.1841 29.0175 18.1656 29.2326L18.1513 29.2152L17.2349 28.0972C17.2784 27.886 17.3354 27.6778 17.4055 27.4739L18.1513 28.383L18.3425 28.6157Z" fill="#C27614"/>
<path d="M20.156 30.828C20.1148 31.0415 20.06 31.2521 19.9918 31.4585L19.061 30.3246C19.153 30.1232 19.2068 29.9065 19.2197 29.6854L20.156 30.828Z" fill="#C27614"/>
<path d="M18.1648 29.2321C18.16 29.2782 18.1561 29.325 18.1537 29.3735V29.3774L18.0577 29.4965L17.1777 28.4238C17.1952 28.3119 17.215 28.2023 17.2372 28.0967L18.1537 29.2147L18.1648 29.2321Z" fill="#F2920C"/>
<path d="M19.9912 31.4551C19.9595 31.552 19.9261 31.6441 19.8896 31.7314L18.9629 30.6015V30.4792C19.0016 30.4303 19.0343 30.377 19.0605 30.3204L19.9912 31.4551Z" fill="#F2920C"/>
<path d="M36.1028 18.7775C36.0179 18.6544 30.5019 20.4561 30.3725 20.5426C30.2432 20.6292 29.779 21.4454 29.8663 21.5971C29.9536 21.7488 34.0351 21.2938 34.8254 20.8714C35.6292 20.4418 36.4051 19.2206 36.1028 18.7775Z" fill="#C27614"/>
<path d="M36.1022 18.7774C36.1506 18.636 30.5012 20.4559 30.3719 20.5425C30.2426 20.629 30.1069 20.8212 30.1942 20.9728C30.2815 21.1245 34.1305 20.4218 34.9025 19.9684C35.5881 19.5658 35.9499 19.2268 36.1022 18.7774Z" fill="#F2920C"/>
<path d="M35.2977 20.9243C35.2287 20.791 29.5357 21.9113 29.396 21.982C29.2564 22.0527 28.6978 22.8062 28.766 22.9666C28.8342 23.127 32.9411 23.1714 33.7766 22.8475C34.6264 22.518 35.5453 21.4 35.2977 20.9243Z" fill="#C27614"/>
<path d="M35.298 20.9246C35.3631 20.7896 29.536 21.9116 29.3963 21.9822C29.2567 22.0529 29.0996 22.2268 29.1678 22.3872C29.2361 22.5476 33.1422 22.3173 33.9635 21.9608C34.6926 21.6448 35.0933 21.3494 35.298 20.9246Z" fill="#F2920C"/>
<path d="M34.3766 22.8101C34.3203 22.6712 28.5471 23.2588 28.4019 23.3159C28.2567 23.3731 27.6307 24.0718 27.6839 24.2378C27.737 24.4037 31.8217 24.8286 32.6826 24.584C33.5602 24.3347 34.5782 23.3064 34.3766 22.8101Z" fill="#C27614"/>
<path d="M34.3767 22.8105C34.4561 22.6819 28.5473 23.2591 28.4021 23.3163C28.2569 23.3735 28.0847 23.5323 28.137 23.6982C28.1894 23.8642 32.1003 23.9976 32.9517 23.7189C33.7063 23.4711 34.1332 23.2147 34.3767 22.8105Z" fill="#F2920C"/>
<path d="M32.5822 20.6369C32.3525 20.9746 32.0606 21.2654 31.7221 21.4936L31.7086 21.5024L31.6911 21.5127C31.6382 21.5477 31.5834 21.5798 31.5269 21.6088C31.3737 21.6759 31.2142 21.7275 31.0508 21.7628L31.0215 21.7692C30.4598 21.8901 29.8923 21.9815 29.3211 22.0431H29.3013C28.5514 22.1312 27.7778 22.1932 27.2383 22.2138C27.2581 22.194 27.278 22.1741 27.2962 22.1543L27.3018 22.1487C27.48 21.9666 27.6324 21.7609 27.7548 21.5373C27.8751 21.3351 27.942 21.1056 27.9492 20.8703C29.4227 20.4257 32.2949 19.5999 32.7893 19.5507H32.8059C32.8385 19.5507 32.8575 19.5507 32.8615 19.557C32.888 19.5985 32.9055 19.645 32.913 19.6936C32.913 19.6936 32.913 19.6983 32.913 19.7015C32.9591 19.9413 32.8202 20.2931 32.5822 20.6369Z" fill="#C27614"/>
<path d="M32.8664 19.553C32.8443 19.6147 32.8178 19.6747 32.787 19.7325C32.7855 19.7358 32.7836 19.739 32.7815 19.742C32.5871 20.0937 32.226 20.382 31.6341 20.7067C31.4562 20.7937 31.2702 20.8629 31.0787 20.9132C30.7724 21.0029 30.3884 21.0926 29.9782 21.176C29.222 21.3308 28.377 21.465 27.7637 21.5381C27.884 21.3359 27.9509 21.1063 27.9581 20.8711C29.4315 20.4312 32.3062 19.6165 32.7981 19.5482H32.8148C32.8505 19.5451 32.8695 19.5451 32.8664 19.553Z" fill="#F2920C"/>
<path d="M31.2736 22.3677C31.1061 22.6331 30.8953 22.8685 30.65 23.064L30.6404 23.072C30.6348 23.0777 30.6287 23.083 30.6222 23.0879H30.6079C30.3521 23.3044 30.0583 23.4713 29.7415 23.5802C29.6342 23.6098 29.5246 23.6297 29.4138 23.6397L29.3344 23.6476C28.9339 23.677 28.5321 23.6852 28.1308 23.6723H28.0236C26.5621 23.6341 24.7705 23.4499 24.734 23.3412C24.7275 23.3032 24.7336 23.2641 24.7514 23.23H24.8594H24.8633H24.9292H24.9347C25.4051 23.2209 25.8682 23.1127 26.2939 22.9124C26.4059 22.8576 26.5138 22.795 26.6168 22.725C26.841 22.5753 27.0506 22.4049 27.2429 22.216C27.2627 22.1962 27.2826 22.1763 27.3008 22.1565L27.3064 22.1509C28.1657 22.0437 29.1702 21.927 29.9636 21.8476H29.9684H29.9866C30.4246 21.8047 30.7991 21.7729 31.0507 21.7602C31.1444 21.7533 31.2384 21.7519 31.3323 21.7563C31.3672 21.7563 31.3871 21.7642 31.3903 21.7714C31.4625 21.927 31.4077 22.1414 31.2736 22.3677Z" fill="#C27614"/>
<path d="M31.3913 21.7716C31.2445 22.0273 31.0255 22.2266 30.6986 22.4069C30.4691 22.5276 30.2303 22.6295 29.9845 22.7118C29.756 22.7912 29.3037 22.8468 28.7641 22.8809C27.9842 22.9301 27.0185 22.9357 26.2886 22.9127C26.4005 22.8579 26.5084 22.7953 26.6115 22.7253C26.8356 22.5756 27.0452 22.4052 27.2375 22.2163C27.2574 22.1964 27.2772 22.1766 27.2955 22.1567C28.1294 22.0575 29.0998 21.9479 29.8861 21.8685H29.902C30.3566 21.8233 30.7486 21.7891 31.0128 21.7708C31.1556 21.7613 31.2627 21.7581 31.3238 21.7605C31.3786 21.7581 31.3992 21.7629 31.3913 21.7716Z" fill="#F2920C"/>
<path d="M33.217 24.6201C33.1797 24.4748 27.3804 24.2795 27.2288 24.316C27.0773 24.3525 26.3624 24.9615 26.3925 25.133C26.4227 25.3046 30.4137 26.2764 31.3 26.1494C32.2046 26.0208 33.3519 25.1394 33.217 24.6201Z" fill="#C27614"/>
<path d="M33.2168 24.6206C33.3104 24.5039 27.3802 24.28 27.2286 24.3165C27.0771 24.353 26.8843 24.488 26.9112 24.6595C26.9382 24.831 30.7991 25.4901 31.6791 25.3289C32.4662 25.1828 32.9232 24.989 33.2168 24.6206Z" fill="#F2920C"/>
<path d="M31.7348 26.4148C31.7182 26.2663 25.9998 25.2809 25.8443 25.2968C25.6888 25.3127 24.8985 25.8177 24.9048 25.9924C24.9112 26.1671 28.7324 27.6733 29.6282 27.6686C30.5391 27.6646 31.7959 26.9476 31.7348 26.4148Z" fill="#C27614"/>
<path d="M31.7354 26.4148C31.8441 26.3124 26.0003 25.2809 25.8448 25.2968C25.6893 25.3127 25.4806 25.4199 25.487 25.5938C25.4933 25.7677 29.2241 26.9436 30.1191 26.9071C30.9158 26.8714 31.3918 26.7396 31.7354 26.4148Z" fill="#F2920C"/>
<path d="M29.7402 27.9007C29.7402 27.7514 24.2123 25.995 24.056 25.995C23.8996 25.995 23.0475 26.3825 23.0308 26.5556C23.0142 26.7287 26.5942 28.7423 27.4821 28.8583C28.3858 28.9766 29.7252 28.4374 29.7402 27.9007Z" fill="#C27614"/>
<path d="M29.7408 27.9007C29.8622 27.8141 24.2128 25.995 24.0565 25.995C23.9002 25.995 23.6788 26.0673 23.6597 26.2403C23.6407 26.4134 27.1787 28.0896 28.0705 28.1722C28.8632 28.2413 29.3567 28.1754 29.7408 27.9007Z" fill="#F2920C"/>
<path d="M21.7453 26.3779C21.7453 26.3779 21.7453 26.3779 21.7453 26.383H21.7402L21.7453 26.3779Z" fill="#C27614"/>
<path d="M27.5423 29.0732C27.4463 29.6013 26.0348 29.9213 25.162 29.66C25.0583 29.626 24.9579 29.5827 24.862 29.5306L24.8287 29.5131C24.4899 29.3245 24.1614 29.1178 23.8448 28.8938C23.3251 28.5341 22.753 28.0998 22.269 27.7162C22.2873 27.6646 22.304 27.6122 22.3206 27.5574C22.3206 27.5574 22.3206 27.5535 22.3206 27.5511C22.337 27.4982 22.3529 27.4434 22.3682 27.3867C22.3984 27.274 22.4277 27.1565 22.4547 27.0358C22.4706 26.9659 22.4857 26.8944 22.5007 26.8222C22.5214 26.7189 22.5412 26.6141 22.561 26.5046C22.561 26.5046 22.561 26.499 22.561 26.4966C22.561 26.4784 22.5682 26.4609 22.5713 26.4426C22.7832 26.5451 23.0792 26.6904 23.4227 26.8619C23.9646 27.1318 24.624 27.4653 25.254 27.7917C25.9173 28.1339 26.5489 28.4682 26.979 28.7096C27.1514 28.8025 27.319 28.904 27.4812 29.0137L27.5058 29.032C27.5107 29.0355 27.5152 29.0395 27.5193 29.0439C27.5376 29.0589 27.5439 29.0677 27.5423 29.0732Z" fill="#C27614"/>
<path d="M27.5422 29.0732C27.1201 29.2837 26.6226 29.271 25.8529 29.0732C25.5712 28.9797 25.3002 28.8565 25.0444 28.7056C24.8619 28.6048 24.6636 28.4904 24.4581 28.3658C23.7638 27.9465 22.9918 27.4272 22.4609 27.0358C22.4768 26.9659 22.4919 26.8944 22.507 26.8222C22.5276 26.7189 22.5474 26.6141 22.5673 26.5046C22.5673 26.5046 22.5673 26.499 22.5673 26.4966C22.5673 26.4784 22.5744 26.4609 22.5776 26.4426C22.7958 26.5482 23.1036 26.7007 23.4607 26.8801C23.9907 27.1469 24.6302 27.4733 25.2444 27.7909C25.8886 28.1252 26.5052 28.4499 26.9368 28.6889C27.1978 28.8342 27.3907 28.9462 27.4827 29.0065L27.5073 29.0248C27.5121 29.0284 27.5166 29.0324 27.5208 29.0367C27.5422 29.0613 27.5485 29.0732 27.5422 29.0732Z" fill="#F2920C"/>
<path d="M25.4406 30.0616C25.2518 30.5634 23.8061 30.6238 22.9944 30.2101C22.8822 30.1483 22.776 30.0763 22.6771 29.9949C22.2494 29.6348 21.8442 29.2487 21.4639 28.8388C21.4877 28.8206 21.5107 28.8023 21.5329 28.7832C21.7041 28.6478 21.8558 28.4894 21.9836 28.3124C21.9987 28.2925 22.0121 28.2727 22.0248 28.252C22.0471 28.2171 22.0685 28.1798 22.0899 28.1409L22.1137 28.094L22.1185 28.0853C22.1769 27.9657 22.2272 27.8424 22.2692 27.7161C22.2875 27.6645 22.3041 27.612 22.3208 27.5573C22.3208 27.5573 22.3208 27.5533 22.3208 27.5509C22.8873 27.9797 23.5181 28.464 24.0664 28.8928C24.3663 29.131 24.6401 29.347 24.8598 29.528C25.0979 29.7202 25.2732 29.8734 25.3653 29.9671L25.3835 29.9854L25.4002 30.0029L25.4113 30.0148C25.4319 30.0394 25.4406 30.0545 25.4406 30.0616Z" fill="#C27614"/>
<path d="M25.4408 30.0615C24.9878 30.1925 24.5006 30.0901 23.7793 29.7582C23.7587 29.7486 23.7373 29.7375 23.7143 29.7248C23.6913 29.7121 23.6468 29.6875 23.6088 29.6637C23.2192 29.4199 22.5915 28.88 21.9854 28.3138C22.0004 28.294 22.0139 28.2741 22.0266 28.2535C22.0488 28.2186 22.0703 28.1812 22.0917 28.1423L22.1155 28.0955L22.1202 28.0867C22.1786 27.9672 22.229 27.8438 22.271 27.7175C22.2892 27.6659 22.3059 27.6135 22.3226 27.5587C22.8843 27.9867 23.5127 28.4687 24.0531 28.8951C24.3435 29.123 24.6085 29.335 24.8307 29.5144C25.0806 29.7169 25.2702 29.8773 25.3694 29.971L25.3877 29.9892L25.4043 30.0067L25.4154 30.0186C25.4408 30.0432 25.4472 30.0591 25.4408 30.0615Z" fill="#F2920C"/>
<path d="M29.4118 23.6411C29.4125 23.7124 29.3982 23.783 29.3698 23.8483C29.2756 24.043 29.1402 24.2148 28.973 24.3517L28.9659 24.3573C28.9262 24.3922 28.8866 24.4256 28.8413 24.4597C28.5761 24.664 28.282 24.8275 27.9685 24.9449C27.6615 25.0706 27.3265 25.112 26.9981 25.0648L26.945 25.06C26.7982 25.0441 26.6339 25.0219 26.457 24.9933C25.2758 24.7914 24.1095 24.5104 22.9658 24.1524L22.9476 24.1461C22.9844 23.9329 23.0404 23.7235 23.115 23.5204C23.1432 23.4301 23.1986 23.3508 23.2737 23.2933C23.5387 23.1345 24.0997 23.2353 24.7638 23.2306H24.8717H24.8757H24.9415H24.9471C25.9714 23.2798 27.3036 23.356 28.2462 23.4299H28.2685C28.762 23.4688 29.146 23.5093 29.3174 23.5418L29.365 23.5522H29.3769C29.4007 23.5601 29.4134 23.5665 29.415 23.5728C29.4168 23.5956 29.4157 23.6186 29.4118 23.6411Z" fill="#C27614"/>
<path d="M29.4033 23.5729C29.3811 23.5991 29.3588 23.6245 29.335 23.6484C29.2688 23.7175 29.1957 23.7798 29.1168 23.8342C28.8256 24.0358 28.4281 24.1613 27.8592 24.2566C27.8185 24.2632 27.7774 24.2677 27.7362 24.2701C26.6801 24.3455 23.2136 23.6936 23.1064 23.5189C23.1346 23.4287 23.1901 23.3493 23.2651 23.2918C23.5301 23.133 24.0911 23.2339 24.7552 23.2291H24.8631H24.8671C25.8986 23.2807 27.2649 23.3609 28.229 23.4356H28.252C28.7495 23.4737 29.1367 23.5102 29.3089 23.5396L29.3565 23.5499H29.3684C29.3945 23.5594 29.408 23.5666 29.4033 23.5729Z" fill="#F2920C"/>
<path d="M28.0262 25.3773C28.0291 25.4632 28.0065 25.548 27.9611 25.6211L27.9532 25.6346C27.9516 25.6368 27.9503 25.6392 27.9492 25.6417C27.8144 25.8577 27.5208 26.0729 27.1685 26.238C26.8216 26.4033 26.4477 26.5042 26.0648 26.5358H26.0465H26.0156C25.9648 26.5358 25.9156 26.5358 25.8672 26.5358H25.8577H25.8331C25.4911 26.5096 24.8016 26.2817 24.0542 25.9919C23.6122 25.8211 23.152 25.6282 22.7339 25.4424C22.7394 25.3995 22.7458 25.3574 22.7521 25.3154C22.7521 25.3154 22.7521 25.3114 22.7521 25.3098C22.7791 25.1216 22.8061 24.9382 22.8315 24.7635C22.8656 24.542 22.8997 24.3339 22.9354 24.1473C23.8289 24.3331 25.3435 24.6674 26.4885 24.9414C26.667 24.9842 26.836 25.0263 26.9923 25.0652C27.4446 25.1788 27.7913 25.2741 27.9445 25.3328L27.9889 25.3511C28.0127 25.3614 28.0254 25.3701 28.0262 25.3773Z" fill="#C27614"/>
<path d="M28.0258 25.3773C27.9396 25.452 27.8445 25.5158 27.7426 25.5671C27.7272 25.5757 27.7113 25.5834 27.695 25.5901C27.6919 25.5923 27.6884 25.5939 27.6847 25.5949C27.3673 25.741 26.9571 25.7973 26.3897 25.7981C26.1091 25.7801 25.8311 25.7321 25.5606 25.6552C25.4812 25.6346 25.3963 25.6131 25.3099 25.5893C24.5339 25.3781 23.5563 25.0438 22.8335 24.7635C22.8676 24.542 22.9017 24.3339 22.9374 24.1473H22.9565C23.8507 24.3363 25.3471 24.6714 26.4834 24.9414L26.9388 25.0525C27.4149 25.1708 27.7862 25.2693 27.9425 25.3249L27.987 25.3431C28.0195 25.3622 28.0322 25.3717 28.0258 25.3773Z" fill="#F2920C"/>
<path d="M21.7453 26.3779C21.7453 26.3779 21.7453 26.3779 21.7453 26.383H21.7402L21.7453 26.3779Z" fill="#C27614"/>
<path d="M26.8692 26.9079C26.8557 27.1461 26.5852 27.3708 26.2099 27.5383C25.9071 27.6707 25.5861 27.7569 25.2577 27.794H25.2434C25.1863 27.8004 25.13 27.8051 25.0736 27.8075C24.9943 27.8115 24.915 27.8123 24.8356 27.8075H24.8182C24.7384 27.8044 24.6589 27.7962 24.5801 27.7829C24.204 27.7202 23.3527 27.2978 22.5005 26.8198C22.5211 26.7165 22.541 26.6117 22.5608 26.5021C22.5608 26.5021 22.5608 26.4966 22.5608 26.4942C22.5608 26.4759 22.5679 26.4585 22.5711 26.4402C22.5923 26.319 22.6129 26.1967 22.633 26.0734C22.6671 25.8614 22.6988 25.6478 22.7298 25.4381C22.7353 25.3953 22.7417 25.3532 22.748 25.3111C22.748 25.3111 22.748 25.3071 22.748 25.3055C23.5859 25.6025 24.6246 25.9797 25.4458 26.2925H25.4505C25.6711 26.3775 25.8766 26.4569 26.0591 26.5307C26.3543 26.6474 26.5876 26.7459 26.7256 26.8134H26.7304L26.7447 26.8213L26.7693 26.8333L26.7796 26.8388L26.8089 26.8555C26.8542 26.8857 26.8692 26.9 26.8692 26.9079Z" fill="#C27614"/>
<path d="M26.8692 26.9081C26.4923 27.1582 26.0218 27.2138 25.2903 27.1305L25.1927 27.1185C24.8293 27.0725 24.0326 26.7446 23.2202 26.361C23.0234 26.2689 22.8234 26.1729 22.6338 26.0776C22.6679 25.8656 22.6996 25.652 22.7306 25.4424C22.7361 25.3995 22.7425 25.3574 22.7488 25.3153C23.6446 25.6329 24.7706 26.0474 25.6195 26.3722H25.6235L25.6338 26.3761C25.7798 26.4309 25.9163 26.4841 26.0432 26.5349C26.3329 26.6493 26.5653 26.7446 26.709 26.8105L26.724 26.8176H26.732L26.7685 26.8351L26.7875 26.8438L26.8169 26.8605C26.8621 26.8883 26.8788 26.9026 26.8692 26.9081Z" fill="#F2920C"/>
<path d="M21.7453 26.3779C21.7453 26.3779 21.7453 26.3779 21.7453 26.383H21.7402L21.7453 26.3779Z" fill="#C27614"/>
<path d="M25.5201 28.2794C25.4812 28.4533 25.2979 28.597 25.04 28.7034C24.7277 28.8211 24.3977 28.8844 24.0641 28.8908H24.0498C23.9808 28.8908 23.9125 28.8908 23.8435 28.8908C23.5971 28.8857 23.3528 28.8445 23.1183 28.7685C22.9096 28.6827 22.7113 28.5735 22.5272 28.443L22.4708 28.4065C22.351 28.3271 22.2225 28.2365 22.0884 28.1381L22.1122 28.0912L22.1169 28.0825C22.1753 27.9629 22.2257 27.8396 22.2677 27.7133C22.2859 27.6617 22.3026 27.6093 22.3193 27.5545C22.3193 27.5545 22.3193 27.5505 22.3193 27.5481C22.3357 27.4952 22.3515 27.4404 22.3669 27.3838C22.397 27.271 22.4264 27.1535 22.4534 27.0328C22.4692 26.9629 22.4843 26.8915 22.4994 26.8192C22.52 26.716 22.5399 26.6112 22.5597 26.5016C22.5597 26.5016 22.5597 26.496 22.5597 26.4937C23.3801 26.9542 24.2489 27.452 24.8313 27.8046C25.0964 27.9634 25.3027 28.0976 25.4169 28.1818C25.4336 28.1937 25.4479 28.204 25.4605 28.2143L25.4867 28.2357C25.5121 28.262 25.5201 28.2747 25.5201 28.2794Z" fill="#C27614"/>
<path d="M21.7453 26.3779C21.7453 26.3779 21.7453 26.3779 21.7453 26.383H21.7402L21.7453 26.3779Z" fill="#F2920C"/>
<path d="M25.5206 28.279C25.2191 28.414 24.8858 28.4378 24.4542 28.3632C24.2449 28.3247 24.038 28.274 23.8345 28.2115C23.5402 28.1234 22.9792 27.7899 22.3706 27.3841C22.4008 27.2714 22.4301 27.1538 22.4571 27.0332C22.473 26.9633 22.488 26.8918 22.5031 26.8196C22.5237 26.7163 22.5436 26.6115 22.5634 26.502C23.3759 26.9601 24.236 27.4548 24.8184 27.8042C25.0913 27.9677 25.3032 28.1003 25.4214 28.1821L25.4651 28.2147L25.4913 28.2361C25.5206 28.2639 25.5293 28.279 25.5206 28.279Z" fill="#F2920C"/>
<path d="M23.7691 29.6372C23.7546 29.6693 23.7354 29.699 23.712 29.7254C23.5422 29.9215 23.1352 30.0096 22.6805 29.9953C22.5145 29.9901 22.349 29.9728 22.1854 29.9437H22.1743C21.873 29.8933 21.5824 29.7921 21.315 29.6444C21.1409 29.5301 20.9799 29.3969 20.835 29.2474C20.9817 29.1679 21.1246 29.0798 21.2595 28.9885L21.2666 28.9829C21.3332 28.9377 21.3983 28.8908 21.4602 28.8424C21.484 28.8241 21.507 28.8059 21.5292 28.7868C21.7004 28.6514 21.8521 28.493 21.9799 28.316C21.995 28.2961 22.0085 28.2763 22.0212 28.2556C22.0434 28.2207 22.0648 28.1834 22.0862 28.1444L22.11 28.0976L22.1148 28.0889L22.525 28.4494C23.1328 28.9885 23.6168 29.4339 23.7382 29.5872L23.7461 29.5983C23.7652 29.619 23.7728 29.6319 23.7691 29.6372Z" fill="#C27614"/>
<path d="M23.769 29.6365C23.7153 29.6487 23.661 29.6577 23.6063 29.6635C23.1937 29.7072 22.747 29.5675 22.1273 29.2379C21.9137 29.1073 21.7143 28.9549 21.5322 28.783C21.7034 28.6476 21.8551 28.4891 21.9829 28.3121C21.998 28.2923 22.0115 28.2724 22.0242 28.2518C22.0464 28.2168 22.0678 28.1795 22.0892 28.1406L22.113 28.0938C22.236 28.2009 22.3558 28.3065 22.4717 28.4114C23.1064 28.9672 23.6127 29.4341 23.7412 29.5857L23.7491 29.5968C23.7745 29.6215 23.7745 29.635 23.769 29.6365Z" fill="#F2920C"/>
<path d="M22.6017 30.4641C22.3446 30.9349 20.9045 30.7952 20.1579 30.2735C19.973 30.1259 19.805 29.9581 19.6572 29.7733C19.9032 29.6828 20.1761 29.5716 20.4507 29.4422C20.5808 29.3802 20.7109 29.3143 20.8387 29.2437C20.9855 29.1643 21.1283 29.0761 21.2632 28.9848L21.2703 28.9792C21.6242 29.3453 21.9447 29.6828 22.182 29.9432C22.3229 30.0904 22.4554 30.2455 22.5787 30.4077V30.4117C22.5827 30.4172 22.5866 30.4228 22.5898 30.4283C22.6009 30.4466 22.6049 30.4585 22.6017 30.4641Z" fill="#C27614"/>
<path d="M22.6025 30.4645C22.1352 30.5312 21.667 30.3629 20.9982 29.9341C20.7992 29.7896 20.6158 29.6249 20.4507 29.4426C20.5808 29.3807 20.7109 29.3147 20.8387 29.2441C20.9855 29.1647 21.1283 29.0765 21.2632 28.9852C21.6139 29.3481 21.9321 29.6824 22.1709 29.9381C22.374 30.158 22.5192 30.324 22.5779 30.4049V30.4089C22.5819 30.4145 22.5859 30.42 22.589 30.4256C22.6065 30.451 22.6105 30.4629 22.6025 30.4645Z" fill="#F2920C"/>
<path d="M27.9537 20.8677C27.9465 21.103 27.8796 21.3325 27.7593 21.5347C27.6369 21.7583 27.4845 21.964 27.3063 22.1461L27.3007 22.1517C27.2825 22.1715 27.2626 22.1914 27.2428 22.2112C27.0505 22.4001 26.8409 22.5705 26.6168 22.7202C26.5137 22.7902 26.4058 22.8529 26.2938 22.9076C25.8681 23.1079 25.405 23.2161 24.9346 23.2252H24.9291H24.8632H24.8593H24.7514C24.0872 23.23 23.5263 23.1307 23.2613 23.2879C23.1862 23.3454 23.1308 23.4248 23.1026 23.515C23.028 23.7181 22.972 23.9275 22.9351 24.1407C22.8994 24.3273 22.8653 24.5377 22.8312 24.7569C22.8042 24.9316 22.7772 25.115 22.7519 25.3032C22.7519 25.3032 22.7519 25.3071 22.7519 25.3087C22.7455 25.3508 22.7392 25.3929 22.7336 25.4358C22.7027 25.6446 22.6709 25.8582 22.6368 26.071C22.6172 26.1943 22.5966 26.3166 22.5749 26.4378C22.5749 26.4561 22.5686 26.4736 22.5646 26.4918C22.5646 26.4918 22.5646 26.4974 22.5646 26.4998C22.5448 26.6062 22.5249 26.711 22.5043 26.8174C22.4892 26.8896 22.4742 26.9611 22.4583 27.031C22.4313 27.1517 22.4019 27.2692 22.3718 27.3819C22.3565 27.4386 22.3406 27.4934 22.3242 27.5463C22.3242 27.5463 22.3242 27.5511 22.3242 27.5527C22.3075 27.6074 22.2909 27.6598 22.2726 27.7115C22.2306 27.8377 22.1803 27.9611 22.1219 28.0807L22.1171 28.0894L22.0933 28.1363C22.0719 28.1752 22.0504 28.2157 22.0282 28.2474C22.0155 28.2681 22.002 28.2879 21.987 28.3078C21.8592 28.4848 21.7075 28.6432 21.5363 28.7786C21.5141 28.7977 21.4911 28.816 21.4673 28.8342C21.4054 28.8826 21.3403 28.9295 21.2737 28.9748L21.2665 28.9803C21.1316 29.0716 20.9888 29.1582 20.842 29.2392C20.7143 29.3098 20.5842 29.3757 20.454 29.4377C20.1803 29.5671 19.9073 29.6759 19.6606 29.7688C19.2186 29.9316 18.8671 30.03 18.7584 30.0594L18.7306 30.0673C18.6188 30.0634 18.5283 29.7934 18.5283 29.4631C18.5283 29.1328 18.6204 28.858 18.7346 28.858C18.7924 28.8339 18.8518 28.8137 18.9124 28.7977C19.0861 28.7437 19.3678 28.6595 19.6812 28.5555C19.8105 28.5126 19.9454 28.4658 20.0779 28.4166C20.2366 28.3594 20.3953 28.2982 20.5413 28.2331C20.5442 28.2338 20.5472 28.2338 20.55 28.2331C20.6381 28.1958 20.7238 28.1537 20.8039 28.1172L20.8293 28.1037C21.0777 27.9798 21.2776 27.8488 21.3744 27.7186C21.3786 27.7142 21.3823 27.7095 21.3855 27.7043C21.4009 27.6813 21.415 27.6575 21.4276 27.6328C21.4427 27.6027 21.4585 27.5677 21.4736 27.5296V27.5217C21.5192 27.3996 21.5576 27.275 21.5887 27.1485C21.599 27.108 21.6093 27.0691 21.6188 27.0222C21.6193 27.021 21.6193 27.0196 21.6188 27.0183C21.6291 26.9754 21.6394 26.9309 21.649 26.8849C21.6831 26.73 21.7156 26.5609 21.7481 26.3823C21.7481 26.3823 21.7481 26.3823 21.7481 26.3775C21.7656 26.2798 21.7831 26.1798 21.7997 26.0774C21.8001 26.0765 21.8004 26.0755 21.8004 26.0746C21.8004 26.0736 21.8001 26.0727 21.7997 26.0718C21.8219 25.9432 21.8434 25.8114 21.8656 25.6748C21.8965 25.4787 21.9275 25.2778 21.9592 25.0816L21.9663 25.0348C21.9981 24.8331 22.0298 24.633 22.0624 24.4393C22.0862 24.2932 22.1108 24.151 22.1361 24.0145C22.1361 24.0145 22.1361 24.0105 22.1361 24.0089C22.2528 23.3737 22.3742 22.8623 22.5226 22.7019C22.9732 22.2025 27.8125 20.5978 27.922 20.7415C27.9444 20.7797 27.9554 20.8235 27.9537 20.8677Z" fill="#C27614"/>
<path d="M27.0837 3.31891C27.0837 3.3745 27.0488 20.3571 27.0488 20.4699C27.0488 20.5827 26.9973 20.6287 26.9005 20.6287L20.6608 20.6549C20.5814 20.6549 20.514 20.7343 20.4854 20.8137C20.4568 20.8931 19.9784 22.2533 19.5063 23.0878C19.0342 23.9223 18.3955 24.7807 18.2987 24.8561C18.2854 24.8665 18.2713 24.8758 18.2566 24.8839C18.2292 24.9 18.198 24.9085 18.1661 24.9085C18.1343 24.9085 18.1031 24.9 18.0757 24.8839C18.0611 24.8759 18.0473 24.8666 18.0344 24.8561C17.9368 24.7767 17.2973 23.9231 16.826 23.0878C16.3547 22.2525 15.8739 20.8899 15.8469 20.8137C15.8199 20.7375 15.7485 20.6549 15.6715 20.6549L9.43184 20.6287C9.33503 20.6287 9.28346 20.5803 9.28346 20.4699C9.28346 20.3595 9.24775 3.37608 9.24855 3.31891C9.24934 3.26174 9.27394 3.22998 9.32789 3.26016C9.38185 3.29033 11.9844 4.70449 12.585 8.65954C13.1857 12.6146 12.4557 16.7062 12.4398 16.8833C12.4239 17.0603 12.5445 17.0715 12.6334 17.0723C12.7223 17.0731 15.7485 17.0723 15.9389 17.0723C16.1294 17.0723 16.1984 16.9929 16.2031 16.7912C16.2079 16.5895 15.6715 6.80549 15.9651 4.30668C16.2587 1.80788 18.0622 0.25 18.1661 0.25C18.2701 0.25 20.0815 1.80947 20.3719 4.30827C20.6623 6.80708 20.1268 16.5958 20.1339 16.7928C20.141 16.9897 20.2069 17.0738 20.3981 17.0738C20.5893 17.0738 23.6156 17.0738 23.7044 17.0738C23.7933 17.0738 23.9123 17.0627 23.8972 16.8849C23.8822 16.707 23.1498 12.6209 23.7497 8.66669C24.3495 4.71243 26.956 3.29509 27.0068 3.2673C27.0576 3.23951 27.0837 3.2673 27.0837 3.31891Z" fill="#C27614"/>
<path d="M18.0258 0.758057C18.0304 0.772004 18.0336 0.786365 18.0353 0.800934C18.0353 6.6995 18.0353 12.5981 18.0353 18.4966C18.0353 18.5046 18.0282 18.5125 18.0203 18.5308C17.4783 18.0678 16.9451 17.6057 16.4072 17.1428C16.425 17.107 16.4407 17.0702 16.454 17.0324C16.4869 16.9333 16.4988 16.8284 16.4889 16.7244C16.4833 16.6831 16.4889 16.6402 16.4889 16.5989C16.4833 16.4552 16.4786 16.3115 16.4722 16.1677C16.4635 15.9684 16.4532 15.7707 16.4437 15.5698C16.4341 15.3689 16.4254 15.1673 16.4159 14.9656C16.4064 14.7639 16.3976 14.5535 16.3881 14.347C16.3786 14.1406 16.3699 13.9111 16.3604 13.6936C16.3508 13.476 16.3413 13.2537 16.3326 13.0329C16.3231 12.7947 16.3143 12.5509 16.3048 12.3104L16.2905 11.9554C16.2826 11.7474 16.2731 11.5386 16.2651 11.3305C16.2588 11.14 16.2548 10.9502 16.2493 10.7596L16.235 10.2832C16.2302 10.1286 16.2257 9.97327 16.2215 9.81711L16.2072 9.26129C16.2025 9.05696 16.198 8.8529 16.1937 8.6491C16.1882 8.35848 16.1818 8.06866 16.1802 7.77567C16.1749 7.17221 16.1715 6.56822 16.1699 5.9637C16.1699 5.76916 16.1763 5.57383 16.1834 5.37929C16.1906 5.18476 16.1993 4.99499 16.212 4.80283C16.2349 4.30957 16.3172 3.82088 16.4572 3.34738C16.5788 2.95439 16.7383 2.57413 16.9332 2.21192C17.0861 1.9278 17.2595 1.65525 17.4521 1.39645C17.6067 1.18687 17.7773 0.989627 17.9623 0.806492C17.9753 0.793232 17.9891 0.780769 18.0036 0.769173C18.0107 0.764963 18.0182 0.761248 18.0258 0.758057Z" fill="#F2920C"/>
<path d="M19.9348 17.1414C19.815 17.2669 18.3693 18.5016 18.3138 18.523C18.3104 18.51 18.308 18.4967 18.3066 18.4833V0.755887C18.3455 0.750329 18.3582 0.776532 18.3757 0.793206C18.5467 0.964141 18.7058 1.14667 18.8517 1.3395C19.1167 1.6838 19.3456 2.05444 19.5349 2.44558C19.7779 2.9375 19.9497 3.46151 20.0451 4.00187C20.0768 4.1837 20.0967 4.36871 20.1157 4.55292C20.13 4.69347 20.1348 4.8348 20.1443 4.97614C20.1657 5.27469 20.172 5.57404 20.1728 5.87339C20.1728 6.42921 20.1816 6.98503 20.1816 7.54085C20.1816 7.86402 20.1736 8.18639 20.1689 8.50956C20.1689 8.71601 20.1593 8.92246 20.1546 9.1289C20.1504 9.31629 20.1456 9.50421 20.1403 9.69266C20.1363 9.85147 20.1316 10.0103 20.1268 10.1691C20.1221 10.3279 20.1181 10.4867 20.1125 10.6455C20.1086 10.7797 20.1038 10.9147 20.099 11.0489C20.0895 11.318 20.0808 11.5872 20.0713 11.8556L20.057 12.224C20.0485 12.4606 20.0393 12.697 20.0292 12.9331C20.0202 13.1575 20.011 13.3822 20.0015 13.6072C19.9919 13.8232 19.9832 14.0384 19.9737 14.2536L19.9451 14.8792C19.9364 15.0785 19.9269 15.2763 19.9181 15.4764L19.8896 16.0814C19.8801 16.2831 19.8753 16.4848 19.8602 16.6857C19.8513 16.7826 19.8572 16.8803 19.8777 16.9755C19.8904 17.0239 19.9142 17.0835 19.9348 17.1414Z" fill="#C27614"/>
<path d="M26.7992 3.86987C26.7992 3.90243 26.8032 3.92387 26.8032 3.94928C26.8032 5.33882 26.8018 6.72864 26.7992 8.11871C26.7992 9.00564 26.7913 9.89336 26.7897 10.7811C26.7897 12.1357 26.7884 13.4906 26.7857 14.8457C26.7857 15.9812 26.7823 17.1172 26.7754 18.2537C26.7754 18.8508 26.7741 19.4482 26.7714 20.0458C26.7714 20.0768 26.7714 20.1077 26.7651 20.1538C26.7442 20.1412 26.724 20.1274 26.7048 20.1125L26.1843 19.6194C26.0065 19.4527 25.828 19.2875 25.6503 19.12C25.5051 18.9834 25.3615 18.8444 25.2163 18.7079C25.2036 18.6978 25.1936 18.6848 25.1871 18.67C25.1806 18.6552 25.1778 18.639 25.179 18.6229C25.1794 18.6158 25.1794 18.6086 25.179 18.6015C25.179 17.3495 25.179 16.0971 25.179 14.8441C25.179 14.5911 25.179 14.3378 25.179 14.0842C25.179 13.7293 25.1877 13.3736 25.1925 13.0187C25.1967 12.7746 25.2015 12.5309 25.2067 12.2874C25.2104 12.0883 25.2149 11.889 25.2202 11.6895L25.2345 11.1948C25.2382 11.0508 25.243 10.9071 25.2488 10.7636C25.2528 10.6413 25.2575 10.5183 25.2623 10.3952C25.2718 10.1824 25.2805 9.96879 25.2908 9.75997C25.2988 9.58369 25.3075 9.40821 25.3186 9.23194C25.3313 9.02628 25.3432 8.81984 25.3607 8.61498C25.3861 8.32357 25.4083 8.03216 25.4448 7.74155C25.5415 6.93689 25.7344 6.14674 26.0192 5.38805C26.2044 4.89421 26.4386 4.42019 26.7183 3.9731C26.7356 3.93209 26.7635 3.89646 26.7992 3.86987Z" fill="#C27614"/>
<path d="M9.58575 20.1475C9.58001 20.1322 9.57524 20.1165 9.57147 20.1006C9.57147 20.08 9.57147 20.0586 9.57147 20.0379C9.57147 18.6277 9.57147 17.2173 9.57147 15.8065C9.57147 14.5102 9.56803 13.2132 9.56116 11.9158C9.56116 10.9582 9.56116 10.0009 9.56116 9.04381C9.55798 7.74267 9.55454 6.44152 9.55084 5.14038C9.55084 4.74601 9.54952 4.35111 9.54688 3.95569C9.54688 3.92869 9.54688 3.90249 9.54688 3.87628L9.56195 3.87231C9.57605 3.88883 9.58929 3.90605 9.60162 3.92393C9.84576 4.30831 10.0555 4.71352 10.2284 5.13482C10.4116 5.57907 10.5604 6.03671 10.6736 6.50372C10.7632 6.85876 10.8315 7.21883 10.8783 7.58201C10.91 7.84483 10.937 8.10765 10.9616 8.37048C10.9798 8.56422 10.991 8.75876 11.0044 8.9525C11.0148 9.1113 11.0235 9.26296 11.0314 9.4178C11.0415 9.6126 11.051 9.80714 11.06 10.0014C11.0647 10.1102 11.0695 10.219 11.0735 10.3278C11.0822 10.539 11.0925 10.7494 11.0997 10.963C11.1068 11.1766 11.1108 11.3759 11.1155 11.5823L11.1298 12.2509C11.1298 12.4454 11.1401 12.6408 11.1433 12.8353C11.1489 13.2466 11.1552 13.6571 11.1568 14.0684C11.1621 15.3039 11.1668 16.5397 11.1711 17.7757C11.1711 18.0481 11.1711 18.3196 11.1711 18.592C11.1726 18.6161 11.1685 18.6402 11.1593 18.6624C11.1501 18.6847 11.1359 18.7046 11.1179 18.7206C10.9354 18.889 10.7553 19.0597 10.5744 19.2296L10.1777 19.6075L9.65082 20.1006C9.62997 20.1174 9.60825 20.133 9.58575 20.1475Z" fill="#F2920C"/>
<path d="M11.4384 18.2476C11.4384 18.2182 11.4384 18.1888 11.4384 18.1587C11.4384 17.4229 11.4384 16.6863 11.4384 15.9489C11.4384 15.3666 11.437 14.7843 11.4344 14.202C11.4344 13.8304 11.4257 13.4588 11.4209 13.0904C11.4167 12.8442 11.4119 12.5984 11.4066 12.3527C11.4029 12.1442 11.3984 11.9353 11.3931 11.7263L11.3789 11.2324C11.3746 11.0863 11.3699 10.9402 11.3646 10.7941C11.3646 10.6686 11.3558 10.5439 11.3511 10.4185C11.3424 10.2009 11.3328 9.98257 11.3233 9.76501C11.3146 9.59191 11.3059 9.41802 11.2948 9.24413C11.2821 9.02894 11.2694 8.81376 11.2527 8.59938C11.236 8.38499 11.221 8.16901 11.1964 7.95542C11.1686 7.71721 11.1361 7.479 11.0972 7.2408C11.0309 6.83303 10.9397 6.42971 10.8242 6.03308C10.6979 5.59351 10.5388 5.16405 10.3482 4.74834C10.2863 4.59192 10.2069 4.44503 10.1355 4.29972C10.1265 4.28441 10.1229 4.26652 10.1252 4.2489C10.1391 4.25772 10.1524 4.26754 10.1649 4.27828C10.4272 4.53465 10.6674 4.81276 10.883 5.10963C11.1026 5.41199 11.2991 5.7305 11.4709 6.06246C11.7113 6.52859 11.9055 7.01712 12.0509 7.52109C12.1617 7.89981 12.247 8.2855 12.3064 8.6756C12.3421 8.90428 12.3691 9.13455 12.3961 9.36482C12.423 9.59509 12.4445 9.80233 12.4627 10.0215C12.481 10.2406 12.4937 10.4375 12.5064 10.6464C12.5143 10.7829 12.5175 10.9195 12.5214 11.0561C12.527 11.2371 12.5325 11.4182 12.5357 11.5992C12.5405 11.866 12.5452 12.1328 12.5452 12.3996C12.5452 12.5973 12.5389 12.7966 12.5317 12.9919C12.5246 13.1873 12.5151 13.4088 12.504 13.6168C12.4929 13.8249 12.4786 14.0472 12.4619 14.2624C12.4413 14.5276 12.4191 14.7936 12.3921 15.0564C12.3588 15.3788 12.3217 15.7009 12.281 16.0227C12.2453 16.3014 12.2017 16.5786 12.1628 16.8557C12.1511 16.9414 12.1649 17.0287 12.2025 17.1066C12.2111 17.1228 12.2147 17.1412 12.2127 17.1595C12.2107 17.1778 12.2033 17.195 12.1914 17.209C11.9591 17.5425 11.7274 17.876 11.4963 18.2095C11.4839 18.2253 11.4707 18.2404 11.4566 18.2547L11.4384 18.2476Z" fill="#C27614"/>
<path d="M26.2246 4.25849C26.2182 4.2769 26.2108 4.29492 26.2024 4.31249C25.973 4.75049 25.7803 5.20676 25.6263 5.67663C25.4637 6.16522 25.34 6.66598 25.2566 7.17416C25.2114 7.45525 25.1772 7.73871 25.1423 8.02139C25.1233 8.18019 25.1122 8.339 25.1011 8.4978C25.0852 8.7106 25.0717 8.9234 25.0582 9.13303C25.0482 9.30136 25.0392 9.47022 25.0312 9.63962C25.0209 9.8548 25.0122 10.0708 25.0027 10.286C24.9979 10.4019 24.9932 10.5178 24.9892 10.6337C24.9836 10.7822 24.9797 10.9299 24.9749 11.0784C24.9701 11.2269 24.9654 11.3849 24.9614 11.5373C24.9559 11.7438 24.9519 11.9502 24.9471 12.1567C24.9424 12.3377 24.936 12.5188 24.9336 12.6998C24.9281 13.1087 24.9241 13.5168 24.9194 13.9258C24.9194 14.1759 24.9098 14.4268 24.9091 14.6777C24.9091 15.756 24.9091 16.834 24.9091 17.9118C24.9091 17.9999 24.9091 18.0889 24.9091 18.177V18.2477C24.8702 18.2477 24.8614 18.2215 24.8487 18.2024C24.7694 18.0928 24.6948 17.9817 24.6179 17.8713C24.4631 17.6482 24.3084 17.4243 24.1529 17.2019C24.1428 17.1916 24.1361 17.1786 24.1334 17.1645C24.1307 17.1504 24.1322 17.1358 24.1378 17.1225C24.1872 17.0042 24.198 16.8734 24.1688 16.7485C24.1307 16.4937 24.0958 16.2388 24.0624 15.9839C24.0347 15.7727 24.0093 15.5607 23.9831 15.3487C23.9696 15.2312 23.9601 15.1105 23.949 14.9961C23.9323 14.8206 23.9149 14.6452 23.899 14.4705C23.8911 14.3728 23.8863 14.2759 23.8791 14.1783C23.8672 14.0004 23.8546 13.8225 23.8427 13.6447C23.8427 13.6058 23.8427 13.5653 23.8379 13.5264C23.8331 13.3827 23.8276 13.2389 23.8236 13.0952C23.8181 12.9166 23.8125 12.7379 23.8101 12.5593C23.8054 12.2901 23.7998 12.0209 23.7998 11.7517C23.7998 11.5429 23.8062 11.3341 23.8141 11.1252C23.8204 10.9355 23.8284 10.7457 23.8419 10.5559C23.8601 10.2923 23.8831 10.0295 23.9061 9.76189C23.9236 9.57292 23.941 9.38394 23.9664 9.19496C23.9998 8.9377 24.0355 8.68043 24.0799 8.42475C24.1397 8.08197 24.221 7.7433 24.3235 7.41078C24.4408 7.03055 24.5847 6.65908 24.7543 6.29914C24.9788 5.8208 25.2544 5.36821 25.5763 4.9493C25.7569 4.71335 25.9542 4.49071 26.1667 4.28311C26.181 4.26961 26.1968 4.2577 26.2119 4.245L26.2246 4.25849Z" fill="#F2920C"/>
<path d="M16.0059 20.5122C15.9491 20.4527 15.8785 20.408 15.8004 20.382C15.7764 20.3739 15.7512 20.3694 15.7258 20.3685C15.4989 20.3629 15.272 20.3558 15.0451 20.3558C14.0675 20.3558 13.09 20.3645 12.1093 20.3502C11.3666 20.3391 10.6247 20.3502 9.88208 20.3391C9.86224 20.3391 9.8432 20.3391 9.80273 20.3327C9.8559 20.2811 9.89557 20.2406 9.93683 20.2017L10.3724 19.7912L10.9056 19.291C10.9985 19.2036 11.0929 19.1171 11.1825 19.0274C11.1981 19.0106 11.217 18.9974 11.2381 18.9886C11.2592 18.9798 11.2819 18.9757 11.3047 18.9765C11.6435 18.9765 11.9831 18.9765 12.3219 18.9765H17.6714H17.7745C17.7688 18.9905 17.7616 19.0038 17.7531 19.0162C17.6881 19.0956 16.0551 20.4876 16.0059 20.5122Z" fill="#C27614"/>
<path d="M18.5762 18.979H18.6555C20.7772 18.979 22.8992 18.979 25.0214 18.979C25.0499 18.9781 25.0782 18.9832 25.1046 18.994C25.131 19.0048 25.1548 19.0211 25.1745 19.0417C25.357 19.2172 25.5427 19.3887 25.7299 19.5626L26.26 20.0644L26.4829 20.274C26.502 20.2943 26.5197 20.3158 26.5361 20.3384C26.4901 20.3384 26.4607 20.3423 26.4321 20.3423C25.7609 20.3423 25.0896 20.3336 24.4191 20.3423C23.2893 20.363 22.1586 20.3463 21.0287 20.355C20.8899 20.355 20.751 20.3606 20.6122 20.3685C20.5287 20.3782 20.4506 20.4151 20.39 20.4733C20.336 20.5186 20.336 20.5186 20.2821 20.4733L18.7745 19.1759L18.6158 19.0393C18.6014 19.0259 18.5881 19.0113 18.5762 18.9957V18.979Z" fill="#C27614"/>
<path d="M11.4966 18.7062C11.5069 18.6839 11.5182 18.6622 11.5307 18.641C11.8222 18.2218 12.1131 17.8026 12.4035 17.3833C12.4119 17.3661 12.4263 17.3525 12.4439 17.3451C12.4616 17.3376 12.4813 17.3368 12.4995 17.3428C12.5629 17.3556 12.6276 17.3612 12.6923 17.3595C13.7534 17.3595 14.8143 17.3595 15.8748 17.3595C15.9603 17.3578 16.0453 17.3477 16.1288 17.3293C16.1449 17.3246 16.1621 17.3242 16.1785 17.3281C16.1949 17.332 16.21 17.3401 16.2224 17.3515C16.4255 17.5286 16.6302 17.7033 16.8341 17.8788C17.1277 18.1313 17.421 18.384 17.7141 18.6371C17.7331 18.653 17.749 18.6712 17.7752 18.6966C17.7567 18.7023 17.7379 18.7065 17.7188 18.7093C17.7006 18.7093 17.6823 18.7093 17.6633 18.7093H11.6045C11.5728 18.7093 11.541 18.7077 11.4966 18.7062Z" fill="#F2920C"/>
<path d="M24.8671 18.6968C24.7766 18.715 18.6536 18.7119 18.5933 18.6968C18.6131 18.6761 18.6282 18.6579 18.6464 18.642C18.9389 18.3884 19.2323 18.1357 19.5264 17.8837C19.7303 17.7082 19.935 17.5335 20.1381 17.3573C20.1509 17.3446 20.1669 17.3356 20.1843 17.3313C20.2018 17.327 20.2201 17.3274 20.2373 17.3326C20.3183 17.3507 20.401 17.3606 20.4841 17.362C21.5494 17.362 22.615 17.362 23.6809 17.362C23.7456 17.3631 23.8103 17.357 23.8737 17.3438C23.9189 17.3326 23.9372 17.3533 23.9578 17.3835L24.1919 17.7209L24.806 18.6039C24.8266 18.6317 24.8441 18.6611 24.8671 18.6968Z" fill="#F2920C"/>
<path d="M18.0104 24.3516C17.9945 24.3325 17.977 24.3142 17.9628 24.2944C17.6461 23.8644 17.3546 23.4163 17.09 22.9525C16.8719 22.5582 16.68 22.15 16.5155 21.7305C16.3973 21.4351 16.2862 21.1373 16.1719 20.8404C16.164 20.8197 16.1577 20.7975 16.1489 20.7721L18.0175 19.1642C18.0254 19.1775 18.0313 19.192 18.035 19.2071C18.0365 19.2277 18.0365 19.2484 18.035 19.269V24.2475C18.035 24.2809 18.035 24.3142 18.0294 24.3476L18.0104 24.3516Z" fill="#F2920C"/>
<path d="M18.3105 24.356V19.1583C18.3455 19.1837 18.3716 19.2004 18.3947 19.2203L18.8271 19.5927L19.9133 20.5272L20.1966 20.7734C20.1736 20.8401 20.1514 20.9076 20.126 20.9743C19.953 21.4324 19.7729 21.8874 19.5705 22.3328C19.3664 22.7758 19.1276 23.2019 18.8564 23.6073C18.7049 23.8351 18.547 24.0591 18.3907 24.2838C18.3716 24.3116 18.3486 24.337 18.3272 24.3632L18.3105 24.356Z" fill="#C27614"/>
</g>
<defs>
<clipPath id="clip0_1_24807">
<rect width="35.96" height="33.5" fill="white" transform="translate(0.209473 0.25)"/>
</clipPath>
</defs>
</svg>
